<svg preserveAspectRatio="none" width="100%" height="100%" overflow="visible" style="display: block;" viewBox="0 0 25 25" fill="none" xmlns="http://www.w3.org/2000/svg">
<g id="AWS" clip-path="url(#clip0_0_16)">
<path id="Vector" d="M7.04531 11.213C7.04531 11.524 7.07865 11.7755 7.13698 11.9604C7.20365 12.1453 7.28646 12.3469 7.40313 12.5651C7.44479 12.6323 7.46146 12.6995 7.46146 12.7583C7.46146 12.8422 7.41146 12.926 7.30365 13.0104L6.77969 13.363C6.70469 13.4135 6.63021 13.4385 6.56354 13.4385C6.48021 13.4385 6.3974 13.3964 6.31406 13.3208C6.1974 13.1948 6.09792 13.0604 6.01458 12.926C5.93125 12.7833 5.84844 12.624 5.75677 12.4307C5.10833 13.2031 4.29323 13.5896 3.31198 13.5896C2.61354 13.5896 2.05625 13.388 1.64896 12.9849C1.24167 12.5818 1.03385 12.0443 1.03385 11.3724C1.03385 10.6589 1.28333 10.0792 1.79063 9.64271C2.29792 9.20625 2.97135 8.9875 3.8276 8.9875C4.11042 8.9875 4.40156 9.0125 4.70885 9.05469C5.01615 9.09688 5.33229 9.16406 5.6651 9.23958V8.62656C5.6651 7.98854 5.53229 7.54323 5.27448 7.28281C5.00833 7.0224 4.55938 6.89635 3.91927 6.89635C3.62813 6.89635 3.32917 6.92969 3.02135 7.00573C2.71354 7.08125 2.41458 7.17344 2.12344 7.29115C1.99063 7.35 1.89063 7.38333 1.83229 7.40052C1.77396 7.41719 1.73229 7.42552 1.69948 7.42552C1.58281 7.42552 1.525 7.34167 1.525 7.1651V6.75365C1.525 6.61927 1.54167 6.51875 1.58333 6.4599C1.625 6.40104 1.7 6.34219 1.81615 6.28333C2.10729 6.13229 2.45625 6.00625 2.86406 5.90521C3.27135 5.79583 3.70365 5.74583 4.16094 5.74583C5.15052 5.74583 5.87396 5.9724 6.33958 6.42604C6.79688 6.87969 7.02969 7.56823 7.02969 8.49167V11.2125L7.04531 11.213ZM3.66927 12.4891C3.94375 12.4891 4.22656 12.4385 4.52552 12.338C4.825 12.2375 5.09115 12.0526 5.31563 11.8005C5.44844 11.6411 5.54844 11.4646 5.59844 11.263C5.64844 11.0615 5.68177 10.8177 5.68177 10.5323V10.1797C5.44063 10.1208 5.18281 10.0703 4.91667 10.037C4.65052 10.0036 4.39271 9.98646 4.1349 9.98646C3.5776 9.98646 3.17031 10.0958 2.89583 10.3224C2.62135 10.549 2.48854 10.8682 2.48854 11.288C2.48854 11.6828 2.58854 11.9766 2.79635 12.1781C2.99583 12.3885 3.28698 12.4891 3.66927 12.4891ZM10.3464 13.3964C10.1969 13.3964 10.0969 13.3714 10.0302 13.3125C9.96354 13.262 9.90573 13.1448 9.85573 12.9849L7.90156 6.49375C7.85156 6.32604 7.82656 6.21667 7.82656 6.15781C7.82656 6.02344 7.89323 5.94792 8.02604 5.94792H8.84115C8.99896 5.94792 9.10729 5.97292 9.16563 6.03177C9.23229 6.08229 9.28177 6.19948 9.33177 6.35938L10.7286 11.9188L12.0255 6.35938C12.0672 6.19167 12.1172 6.08229 12.1833 6.03177C12.25 5.98125 12.3661 5.94792 12.5161 5.94792H13.1812C13.3391 5.94792 13.4474 5.97292 13.5141 6.03177C13.5807 6.08229 13.6385 6.19948 13.6719 6.35938L14.9854 11.9859L16.424 6.35938C16.474 6.19167 16.5323 6.08229 16.5901 6.03177C16.6568 5.98125 16.7646 5.94792 16.9146 5.94792H17.688C17.8208 5.94792 17.8958 6.0151 17.8958 6.15781C17.8958 6.2 17.8875 6.24167 17.8792 6.29219C17.8708 6.34271 17.8542 6.4099 17.8208 6.50208L15.8172 12.9932C15.7672 13.1609 15.7089 13.2703 15.6427 13.3208C15.5766 13.3714 15.4682 13.4047 15.3266 13.4047H14.6115C14.4536 13.4047 14.3453 13.3797 14.2786 13.3208C14.212 13.262 14.1542 13.1531 14.1208 12.9849L12.8323 7.56823L11.5521 12.9766C11.5104 13.1443 11.4604 13.2536 11.3943 13.3125C11.3276 13.3714 11.2115 13.3964 11.0615 13.3964H10.3464ZM21.0307 13.6229C20.5984 13.6229 20.1661 13.5724 19.7505 13.4719C19.3349 13.3714 19.0104 13.262 18.7943 13.1359C18.6615 13.0604 18.5698 12.9766 18.5365 12.901C18.5031 12.8255 18.4865 12.7417 18.4865 12.6661V12.238C18.4865 12.0615 18.5531 11.9776 18.6776 11.9776C18.7276 11.9776 18.7776 11.9859 18.8271 12.0026C18.8771 12.0193 18.9516 12.0531 19.0349 12.0865C19.3177 12.2125 19.625 12.313 19.9495 12.3802C20.2823 12.4474 20.6062 12.4807 20.9391 12.4807C21.463 12.4807 21.8703 12.3885 22.1531 12.2036C22.4359 12.0187 22.5854 11.75 22.5854 11.4057C22.5854 11.1708 22.5104 10.9776 22.3609 10.8177C22.2115 10.6583 21.9286 10.5156 21.5214 10.3812L20.3156 10.0031C19.7089 9.8099 19.2599 9.52448 18.9854 9.14635C18.7109 8.77708 18.5698 8.36562 18.5698 7.92865C18.5698 7.57604 18.6448 7.2651 18.7943 6.99635C18.9437 6.7276 19.1438 6.49271 19.3927 6.30781C19.6422 6.11458 19.925 5.97188 20.2573 5.87135C20.5901 5.77135 20.9391 5.72917 21.3052 5.72917C21.488 5.72917 21.6792 5.7375 21.8625 5.7625C22.0536 5.7875 22.2281 5.82135 22.4031 5.85469C22.5693 5.89688 22.7276 5.93854 22.8771 5.98906C23.0266 6.03958 23.1432 6.08958 23.2266 6.1401C23.3432 6.20729 23.426 6.27448 23.476 6.35C23.526 6.41719 23.551 6.50938 23.551 6.62708V7.02188C23.551 7.19844 23.4844 7.29063 23.3599 7.29063C23.2932 7.29063 23.1854 7.25729 23.0437 7.1901C22.5698 6.97188 22.0375 6.8625 21.4474 6.8625C20.9734 6.8625 20.5995 6.93802 20.3417 7.0974C20.0839 7.25677 19.951 7.50052 19.951 7.84479C19.951 8.07969 20.0344 8.28125 20.2005 8.44115C20.3667 8.60052 20.6745 8.76042 21.1151 8.90313L22.2958 9.28125C22.8943 9.47448 23.3271 9.74323 23.5844 10.0875C23.8417 10.4318 23.9667 10.8266 23.9667 11.263C23.9667 11.624 23.8917 11.9516 23.7505 12.237C23.601 12.5224 23.401 12.7745 23.1437 12.976C22.8859 13.1859 22.5781 13.337 22.2208 13.4464C21.8453 13.5641 21.4547 13.6229 21.0307 13.6229Z" fill="var(--fill-0, #252F3E)"/>
<path id="Vector_2" d="M22.6021 17.7042C19.8667 19.7448 15.8922 20.8281 12.4745 20.8281C7.68542 20.8281 3.36979 19.0396 0.110417 16.0667C-0.147395 15.8318 0.0854171 15.5125 0.39323 15.6974C3.91875 17.763 8.26719 19.0146 12.7656 19.0146C15.8005 19.0146 19.1349 18.3766 22.2026 17.0661C22.6604 16.8562 23.051 17.3682 22.6021 17.7042ZM23.7411 16.3943C23.3917 15.9406 21.4297 16.176 20.5401 16.2849C20.274 16.3182 20.2323 16.0833 20.4734 15.9068C22.0365 14.7984 24.6057 15.1172 24.9052 15.487C25.2047 15.8651 24.8219 18.4599 23.3589 19.7026C23.1344 19.8958 22.9182 19.7948 23.0177 19.5432C23.3505 18.712 24.0906 16.8391 23.7411 16.3943Z" fill="var(--fill-0, #FF9900)"/>
</g>
<defs>
<clipPath id="clip0_0_16">
<rect width="25" height="25" fill="white"/>
</clipPath>
</defs>
</svg>
