<svg preserveAspectRatio="none" width="100%" height="100%" overflow="visible" style="display: block;" viewBox="0 0 25 25" fill="none" xmlns="http://www.w3.org/2000/svg">
<g id="CSS3">
<path id="Vector" d="M21.3542 2.60417H3.64583L5.20833 20.3125L12.5 22.3958L19.7917 20.3125L21.3542 2.60417Z" fill="var(--fill-0, #0277BD)"/>
<path id="Vector_2" d="M12.5 4.16667V20.7813L18.3333 19.1146L19.6354 4.16667H12.5Z" fill="var(--fill-0, #039BE5)"/>
<path id="Vector_3" d="M17.2396 6.77083H12.5V8.85417H15.0521L14.8958 10.9375H12.5V13.0208H14.7917L14.6354 15.3646L12.5 16.0937V18.2812L16.6146 16.9271L16.9792 10.9375L17.2396 6.77083Z" fill="var(--fill-0, white)"/>
<path id="Vector_4" d="M12.5 6.77083V8.85417H7.86458L7.70833 6.77083H12.5ZM10.1042 10.9375L10.2083 13.0208H12.5V10.9375H10.1042ZM10.3125 14.0625H8.22917L8.38542 16.9271L12.5 18.2812V16.0937L10.3646 15.3646L10.3125 14.0625Z" fill="var(--fill-0, #EEEEEE)"/>
</g>
</svg>
