<svg preserveAspectRatio="none" width="100%" height="100%" overflow="visible" style="display: block;" viewBox="0 0 56.6615 22.8416" fill="none" xmlns="http://www.w3.org/2000/svg">
<g id="Cypress">
<path id="Vector" d="M0.405771 14.4455C0.136858 13.4665 3.28905e-09 12.4466 3.28905e-09 11.422C3.28905e-09 6.73803 2.94364 2.45477 7.32308 0.765467L7.89933 2.25081C4.12734 3.70496 1.59427 7.39071 1.59427 11.422C1.59427 12.3051 1.71192 13.1809 1.94242 14.0256L0.405771 14.4455Z" fill="var(--fill-0, #69D3A7)"/>
<path id="Vector_2" d="M20.2141 6.8964C18.5094 3.62577 15.1528 1.59332 11.4576 1.59332C10.1491 1.59332 8.87654 1.84528 7.67843 2.33959L7.06617 0.868649C8.45876 0.292749 9.93538 0 11.4576 0C15.7506 0 19.6475 2.35879 21.6283 6.15973L20.2141 6.8964Z" fill="url(#paint0_linear_0_5)"/>
<path id="Vector_3" d="M8.03618 9.06562C8.96057 9.06562 9.71449 9.55754 10.1011 10.419L10.1323 10.4862L11.6857 9.95827L11.6521 9.87908C11.0519 8.41534 9.66647 7.50589 8.03618 7.50589C6.8909 7.50589 5.95931 7.87303 5.19099 8.6265C4.42746 9.37517 4.0385 10.3158 4.0385 11.4268C4.0385 12.5258 4.42506 13.4641 5.19099 14.2103C5.95931 14.9638 6.8909 15.3309 8.03618 15.3309C9.66407 15.3309 11.0495 14.4215 11.6521 12.9577L11.6857 12.8786L10.1299 12.3507L10.1011 12.4202C9.75531 13.2649 8.98218 13.7712 8.03618 13.7712C7.39271 13.7712 6.84768 13.5456 6.4179 13.1041C5.98092 12.6554 5.76243 12.0915 5.76243 11.4292C5.76243 10.7621 5.97852 10.2078 6.4179 9.73991C6.84768 9.28878 7.39271 9.06562 8.03618 9.06562Z" fill="var(--fill-0, #1B1E2E)"/>
<path id="Vector_4" d="M27.1746 8.6265C26.4591 7.88263 25.5636 7.50589 24.5143 7.50589C23.4723 7.50589 22.6151 7.87543 21.9644 8.6073V7.64747H20.2861V18.0689H21.9644V14.2271C22.6151 14.9566 23.4723 15.3285 24.5143 15.3285C25.5636 15.3285 26.4591 14.9518 27.1746 14.2055C27.8805 13.4569 28.2359 12.521 28.2359 11.4244C28.2359 10.3134 27.8805 9.37277 27.1746 8.6265ZM25.8589 13.0969C25.4291 13.5408 24.8841 13.764 24.2406 13.764C23.5875 13.764 23.0593 13.5456 22.6223 13.0969C22.1853 12.6482 21.9669 12.0843 21.9669 11.422C21.9669 10.7405 22.1805 10.1862 22.6223 9.73271C23.0593 9.28159 23.5875 9.06562 24.2406 9.06562C24.8841 9.06562 25.4291 9.29118 25.8589 9.73271C26.2911 10.179 26.5 10.7309 26.5 11.422C26.5 12.1035 26.2887 12.653 25.8589 13.0969Z" fill="var(--fill-0, #1B1E2E)"/>
<path id="Vector_5" d="M30.9682 8.54491V7.64747H29.2899V15.1822H30.9682V10.9325C30.9682 10.251 31.242 9.73031 31.7846 9.38477C32.3224 9.04163 32.9683 8.97684 33.7582 9.1928L33.8591 9.2216V7.60908L33.7966 7.59468C32.7354 7.34032 31.6717 7.70506 30.9682 8.54491Z" fill="var(--fill-0, #1B1E2E)"/>
<path id="Vector_6" d="M38.2121 7.5035C37.1052 7.5035 36.1688 7.88023 35.4221 8.6241C34.6682 9.37757 34.2864 10.3182 34.2864 11.4244C34.2864 12.5234 34.673 13.4617 35.4389 14.2079C36.2072 14.9614 37.1388 15.3285 38.2841 15.3285C39.8352 15.3285 41.1701 14.5415 41.8544 13.2217L41.8928 13.1449L40.4738 12.5162L40.4402 12.5834C40.0297 13.3777 39.2397 13.8528 38.3297 13.8528C37.1484 13.8528 36.2457 13.1329 36.0008 12.0075H42.0873L42.0945 11.9355C42.2266 10.7189 41.912 9.66552 41.1653 8.80167C40.4186 7.94022 39.4246 7.5035 38.2121 7.5035ZM36.0488 10.6637C36.3465 9.63433 37.1869 8.97684 38.2121 8.97684C39.2661 8.97684 40.1065 9.63433 40.3778 10.6637H36.0488Z" fill="var(--fill-0, #1B1E2E)"/>
<path id="Vector_7" d="M46.5748 10.7045C45.66 10.5342 44.8701 10.383 44.8701 9.74711C44.8701 9.24319 45.4079 8.89045 46.1762 8.89045C47.0262 8.89045 47.4896 9.25519 47.6 10.0039L47.612 10.0878L49.2904 9.73751L49.2783 9.66072C49.0527 8.32895 47.8642 7.5011 46.1786 7.5011C45.3311 7.5011 44.6156 7.71946 44.0489 8.15138C43.4703 8.58091 43.1774 9.14001 43.1774 9.81909C43.1774 10.8005 43.7992 11.5372 44.8437 11.7892C45.115 11.8515 45.4007 11.9043 45.6768 11.9547C46.7165 12.1443 47.6985 12.3243 47.6985 13.0225C47.6985 13.5624 47.0718 13.9368 46.1738 13.9368C45.2615 13.9368 44.7572 13.572 44.6348 12.821L44.6204 12.737L42.9445 13.0873L42.9589 13.1641C43.2038 14.5151 44.4043 15.3213 46.1738 15.3213C47.0718 15.3213 47.8425 15.0982 48.4596 14.6567C49.0767 14.2223 49.3888 13.6608 49.3888 12.9889C49.3936 11.2348 47.8329 10.9397 46.5748 10.7045Z" fill="var(--fill-0, #1B1E2E)"/>
<path id="Vector_8" d="M53.8451 10.7045C52.9303 10.5342 52.1404 10.383 52.1404 9.74711C52.1404 9.24319 52.6782 8.89045 53.4465 8.89045C54.2965 8.89045 54.7599 9.25519 54.8703 10.0039L54.8823 10.0878L56.5606 9.73751L56.5486 9.66072C56.3229 8.32895 55.1344 7.5011 53.4489 7.5011C52.6014 7.5011 51.8858 7.71946 51.3192 8.15138C50.7406 8.58091 50.4476 9.14001 50.4476 9.81909C50.4476 10.8005 51.0695 11.5372 52.1139 11.7892C52.3853 11.8515 52.671 11.9043 52.9471 11.9547C53.9867 12.1443 54.9687 12.3243 54.9687 13.0225C54.9687 13.5624 54.3421 13.9368 53.4441 13.9368C52.5317 13.9368 52.0275 13.572 51.9051 12.821L51.8906 12.737L50.2147 13.0873L50.2291 13.1641C50.4741 14.5151 51.6746 15.3213 53.4441 15.3213C54.3421 15.3213 55.1128 15.0982 55.7323 14.6567C56.3493 14.2223 56.6615 13.6608 56.6615 12.9889C56.6639 11.2348 55.1008 10.9397 53.8451 10.7045Z" fill="var(--fill-0, #1B1E2E)"/>
<path id="Vector_9" d="M17.7627 7.64747L15.5489 13.2457L13.3232 7.64747H11.5008L14.6246 15.2877L12.4012 20.6748L13.9955 20.9915L19.4866 7.64747H17.7627Z" fill="var(--fill-0, #1B1E2E)"/>
<path id="Vector_10" d="M12.6869 19.9813L12.298 20.9196C12.2211 21.1043 12.0435 21.2315 11.8466 21.2411C11.7145 21.2459 11.5825 21.2507 11.4504 21.2507C6.8813 21.2483 2.83799 18.0281 1.83437 13.5912L0.278517 13.9416C0.840354 16.4299 2.25215 18.688 4.25219 20.3029C6.27624 21.9346 8.82372 22.8368 11.4312 22.8416C11.436 22.8416 11.4552 22.8416 11.4552 22.8416C11.6089 22.8416 11.7602 22.8368 11.9114 22.832C12.7302 22.7984 13.4601 22.2849 13.7722 21.5267L14.2788 20.2981L12.6869 19.9813Z" fill="url(#paint1_linear_0_5)"/>
</g>
<defs>
<linearGradient id="paint0_linear_0_5" x1="10.2693" y1="-0.742481" x2="18.9609" y2="8.55273" gradientUnits="userSpaceOnUse">
<stop offset="0.0939" stop-color="#58D09E"/>
<stop offset="0.9883" stop-color="#58D09E" stop-opacity="0"/>
</linearGradient>
<linearGradient id="paint1_linear_0_5" x1="-0.121854" y1="16.6153" x2="16.4924" y2="21.0401" gradientUnits="userSpaceOnUse">
<stop offset="0.0774" stop-color="#58D09E"/>
<stop offset="0.7617" stop-color="#1B1E2E"/>
</linearGradient>
</defs>
</svg>
