<svg preserveAspectRatio="none" width="100%" height="100%" overflow="visible" style="display: block;" viewBox="0 0 28 19" fill="none" xmlns="http://www.w3.org/2000/svg">
<g id="Docker" clip-path="url(#clip0_0_63)">
<path id="Vector" d="M24.2113 6.86829C24.0646 5.84142 23.4778 4.94984 22.419 4.14434L21.8067 3.74466L21.3985 4.3411C20.8755 5.10971 20.614 6.17961 20.6969 7.20647C20.7352 7.56311 20.8564 8.21489 21.2327 8.77443C20.8564 8.97735 20.1102 9.2479 19.1152 9.22945H0.108333L0.0700646 9.44466C-0.108523 10.4715 -0.108523 13.6874 2.02815 16.1531C3.65457 18.0285 6.08464 18.9816 9.26095 18.9816C16.1493 18.9816 21.2391 15.8887 23.6309 10.2563C24.5685 10.2748 26.5903 10.2625 27.63 8.32557C27.6555 8.28252 27.7193 8.1657 27.8979 7.79676L27.9999 7.59385L27.4195 7.21262C26.7817 6.81295 25.3338 6.65922 24.2113 6.86829ZM15.3074 0H12.4181V2.56408H15.3074V0ZM15.3074 3.08058H12.4181V5.64466H15.3074V3.08058ZM11.8887 3.08058H8.99945V5.64466H11.8887V3.08058ZM8.47644 3.08058H5.58715V5.64466H8.47644V3.08058ZM5.05776 6.16117H2.16847V8.72524H5.05776V6.16117ZM8.47644 6.16117H5.58715V8.72524H8.47644V6.16117ZM11.8887 6.16117H8.99945V8.72524H11.8887V6.16117ZM15.3074 6.16117H12.4181V8.72524H15.3074V6.16117ZM18.7261 6.16117H15.8368V8.72524H18.7261V6.16117Z" fill="var(--fill-0, #1D63ED)"/>
</g>
<defs>
<clipPath id="clip0_0_63">
<rect width="28" height="19" fill="white"/>
</clipPath>
</defs>
</svg>
