<svg preserveAspectRatio="none" width="100%" height="100%" overflow="visible" style="display: block;" viewBox="0 0 24 24" fill="none" xmlns="http://www.w3.org/2000/svg">
<g id="Figma" opacity="0.85">
<g clip-path="url(#clip0_0_68)">
<g id="Group">
<path id="bgRectangle" d="M0 24V0H24V24H0Z" fill="var(--fill-0, black)"/>
</g>
<g id="Vector">
</g>
<path id="Vector_2" d="M12 11.5C12 10.1193 13.1193 9 14.5 9C15.8807 9 17 10.1193 17 11.5C17 12.8807 15.8807 14 14.5 14C13.1193 14 12 12.8807 12 11.5Z" fill="var(--fill-0, #1ABCFE)"/>
<path id="Vector_3" d="M6 17C6 15.3432 7.34314 14 9 14H12V17C12 18.6569 10.6569 20 9 20C7.34314 20 6 18.6569 6 17Z" fill="var(--fill-0, #0ACF83)"/>
<path id="Vector_4" d="M12 3V9H14.5C15.8807 9 17 7.65686 17 6.00001C17 4.34315 15.8807 3 14.5 3H12Z" fill="var(--fill-0, #FF7262)"/>
<path id="Vector_5" d="M6 6.00001C6 7.65686 7.34314 9 9 9H12V3H9C7.34314 3 6 4.34315 6 6.00001Z" fill="var(--fill-0, #F24E1E)"/>
<path id="Vector_6" d="M6 11.5C6 12.8807 7.34314 14 9 14H12V9H9C7.34314 9 6 10.1193 6 11.5Z" fill="var(--fill-0, #A259FF)"/>
</g>
</g>
<defs>
<clipPath id="clip0_0_68">
<rect width="24" height="24" rx="4" fill="white"/>
</clipPath>
</defs>
</svg>
