<svg preserveAspectRatio="none" width="100%" height="100%" overflow="visible" style="display: block;" viewBox="0 0 22 22" fill="none" xmlns="http://www.w3.org/2000/svg">
<g id="Firebase">
<path id="Vector" d="M3.66667 16.9583L10.6489 3.8665C10.796 3.59058 11.1939 3.59563 11.3337 3.87567L13.75 8.70833L3.66667 16.9583Z" fill="var(--fill-0, #FF8F00)"/>
<path id="Vector_2" d="M3.66667 16.9547L6.20858 1.28013C6.27504 0.869917 6.82596 0.781 7.01846 1.1495L11.9167 10.538L3.66667 16.9547Z" fill="var(--fill-0, #FFA000)"/>
<path id="Vector_3" d="M3.67033 16.9519L3.762 16.88L11.7961 10.307L9.53013 5.96383L3.67033 16.9519Z" fill="var(--fill-0, #FF6F00)"/>
<path id="Vector_4" d="M3.66667 16.9583L15.8886 5.17321C16.1448 4.92617 16.5724 5.07192 16.6247 5.42392L18.3333 16.9583L11.4583 20.9655C11.1792 21.1223 10.8387 21.1223 10.5595 20.9655L3.66667 16.9583Z" fill="var(--fill-0, #FFC400)"/>
</g>
</svg>
