<svg preserveAspectRatio="none" width="100%" height="100%" overflow="visible" style="display: block;" viewBox="0 0 24 24" fill="none" xmlns="http://www.w3.org/2000/svg">
<g id="GraphQL">
<path id="Vector" d="M12.25 22.5805L3.5 17.41V7.09L12.25 1.9195L21 7.09V17.41L12.25 22.5805ZM4.5 16.84L12.25 21.4195L20 16.84V7.66L12.25 3.0805L4.5 7.66V16.84Z" fill="var(--fill-0, #FF4081)"/>
<path id="Vector_2" d="M12.25 4.5C13.2165 4.5 14 3.7165 14 2.75C14 1.7835 13.2165 1 12.25 1C11.2835 1 10.5 1.7835 10.5 2.75C10.5 3.7165 11.2835 4.5 12.25 4.5Z" fill="var(--fill-0, #FF4081)"/>
<path id="Vector_3" d="M12.25 23.5C13.2165 23.5 14 22.7165 14 21.75C14 20.7835 13.2165 20 12.25 20C11.2835 20 10.5 20.7835 10.5 21.75C10.5 22.7165 11.2835 23.5 12.25 23.5Z" fill="var(--fill-0, #FF4081)"/>
<path id="Vector_4" d="M4.25 18.5C5.2165 18.5 6 17.7165 6 16.75C6 15.7835 5.2165 15 4.25 15C3.2835 15 2.5 15.7835 2.5 16.75C2.5 17.7165 3.2835 18.5 4.25 18.5Z" fill="var(--fill-0, #FF4081)"/>
<path id="Vector_5" d="M20.25 18.5C21.2165 18.5 22 17.7165 22 16.75C22 15.7835 21.2165 15 20.25 15C19.2835 15 18.5 15.7835 18.5 16.75C18.5 17.7165 19.2835 18.5 20.25 18.5Z" fill="var(--fill-0, #FF4081)"/>
<path id="Vector_6" d="M4.25 9.5C5.2165 9.5 6 8.7165 6 7.75C6 6.7835 5.2165 6 4.25 6C3.2835 6 2.5 6.7835 2.5 7.75C2.5 8.7165 3.2835 9.5 4.25 9.5Z" fill="var(--fill-0, #FF4081)"/>
<path id="Vector_7" d="M20.25 9.5C21.2165 9.5 22 8.7165 22 7.75C22 6.7835 21.2165 6 20.25 6C19.2835 6 18.5 6.7835 18.5 7.75C18.5 8.7165 19.2835 9.5 20.25 9.5Z" fill="var(--fill-0, #FF4081)"/>
<path id="Vector_8" d="M21.36 17.5H3.14L12.25 1.489L21.36 17.5ZM4.86 16.5H19.64L12.25 3.511L4.86 16.5Z" fill="var(--fill-0, #FF4081)"/>
</g>
</svg>
