<svg preserveAspectRatio="none" width="100%" height="100%" overflow="visible" style="display: block;" viewBox="0 0 25 25" fill="none" xmlns="http://www.w3.org/2000/svg">
<g id="Hydrogen">
<path id="Vector" d="M12.5208 1.58333C12.5737 1.60011 12.6114 1.61743 12.6589 1.64453C12.6886 1.66046 12.7183 1.67638 12.748 1.6923C12.7647 1.70142 12.7813 1.71053 12.7985 1.71992C12.8603 1.75329 12.9226 1.78545 12.985 1.81746C13.2265 1.94125 13.4663 2.0677 13.704 2.19855C13.8467 2.27688 13.9908 2.35237 14.1354 2.42708C14.2989 2.51151 14.4612 2.59748 14.6224 2.6862C14.7921 2.77958 14.9633 2.86963 15.1354 2.95833C15.3264 3.05673 15.5158 3.15746 15.704 3.26107C15.8467 3.33938 15.9908 3.41487 16.1354 3.48958C16.2989 3.57401 16.4612 3.65998 16.6224 3.7487C16.7921 3.84208 16.9633 3.93213 17.1354 4.02083C17.3264 4.11923 17.5158 4.21996 17.704 4.32357C17.8467 4.40188 17.9908 4.47737 18.1354 4.55208C18.2989 4.63651 18.4612 4.72248 18.6224 4.8112C18.7921 4.90458 18.9633 4.99463 19.1354 5.08333C19.3264 5.18173 19.5158 5.28246 19.704 5.38607C19.8467 5.46439 19.9908 5.53987 20.1354 5.61458C20.2989 5.69901 20.4612 5.78498 20.6224 5.8737C20.7921 5.96708 20.9633 6.05713 21.1354 6.14583C21.3264 6.24422 21.5158 6.34492 21.7039 6.44852C21.8475 6.52733 21.9925 6.60323 22.138 6.67839C22.365 6.79562 22.5894 6.91713 22.8125 7.04167C22.8125 7.06229 22.8125 7.08292 22.8125 7.10417C22.5476 7.25147 22.2802 7.39314 22.0104 7.53125C21.819 7.62925 21.6283 7.72786 21.4401 7.83203C21.2276 7.94963 21.0116 8.05999 20.7955 8.17053C20.6115 8.26464 20.4283 8.35962 20.2474 8.45964C20.172 8.50105 20.0964 8.54225 20.0208 8.58333C20.0075 8.59056 19.9942 8.5978 19.9805 8.60525C19.8884 8.6553 19.7959 8.70479 19.7031 8.75376C19.6721 8.77023 19.6412 8.78685 19.6103 8.80362C19.567 8.82711 19.5235 8.85005 19.4798 8.87288C19.4669 8.88005 19.4539 8.88722 19.4406 8.8946C19.3751 8.92814 19.3408 8.93907 19.268 8.92383C19.2385 8.90997 19.2385 8.90997 19.2083 8.89583C19.1915 8.88801 19.1747 8.88018 19.1574 8.87212C19.1409 8.86346 19.1244 8.85479 19.1074 8.84587C19.0886 8.83601 19.0697 8.82616 19.0503 8.81601C19.0303 8.8054 19.0102 8.79479 18.9896 8.78385C18.9684 8.77273 18.9472 8.76161 18.9254 8.75015C18.7657 8.66595 18.6073 8.57955 18.4491 8.49256C18.2733 8.39634 18.0954 8.30454 17.9173 8.21278C17.7505 8.12663 17.5854 8.0378 17.421 7.94727C17.2783 7.86895 17.1342 7.79346 16.9896 7.71875C16.8075 7.62471 16.6271 7.5282 16.4476 7.42937C16.2648 7.32912 16.0797 7.23341 15.8942 7.13815C15.8715 7.12648 15.8488 7.11481 15.8254 7.10278C15.8053 7.09248 15.7852 7.08218 15.7645 7.07157C15.7083 7.04167 15.7083 7.04167 15.6554 7.0053C15.6063 6.97491 15.6063 6.97491 15.554 6.98154C15.4873 7.00433 15.4273 7.03363 15.3647 7.06616C15.3517 7.07285 15.3388 7.07953 15.3255 7.08642C15.2833 7.10826 15.2413 7.1303 15.1992 7.15234C15.1698 7.16766 15.1403 7.18298 15.1109 7.19828C14.9298 7.29261 14.7502 7.38922 14.5715 7.4879C14.393 7.58601 14.2118 7.67877 14.0306 7.77171C13.8603 7.8591 13.691 7.94775 13.5234 8.04036C13.3023 8.16257 13.0777 8.27794 12.8528 8.39298C12.6647 8.48923 12.4778 8.58748 12.2917 8.6875C12.3492 8.73275 12.4067 8.76868 12.4718 8.802C12.4908 8.81179 12.5098 8.82157 12.5294 8.83166C12.5497 8.84209 12.5701 8.85253 12.5911 8.86328C12.7546 8.94769 12.917 9.03362 13.0781 9.1224C13.2724 9.22927 13.4689 9.33153 13.6661 9.4331C13.8319 9.51873 13.996 9.60707 14.1594 9.6971C14.3099 9.77967 14.462 9.85889 14.6146 9.9375C14.8043 10.0353 14.9926 10.1352 15.1794 10.2384C15.287 10.2976 15.3954 10.3549 15.5047 10.4108C15.5239 10.4207 15.5239 10.4207 15.5436 10.4307C15.6065 10.4629 15.6695 10.4949 15.7327 10.5267C15.7554 10.5383 15.7782 10.5499 15.8016 10.5618C15.8218 10.572 15.842 10.5822 15.8628 10.5927C15.9177 10.6256 15.957 10.6613 16 10.7083C15.9803 10.7184 15.9606 10.7284 15.9403 10.7388C15.4608 10.9834 15.4608 10.9834 14.9868 11.2385C14.8159 11.3326 14.6424 11.4215 14.4687 11.5104C14.2586 11.618 14.0498 11.7273 13.8432 11.8416C13.6551 11.9451 13.4638 12.0424 13.2727 12.1402C13.0472 12.2557 12.824 12.3742 12.6042 12.5C12.6223 12.5094 12.6223 12.5094 12.6409 12.519C12.8651 12.6351 13.0887 12.752 13.3099 12.8737C13.4946 12.9752 13.6812 13.073 13.8685 13.1697C14.0097 13.2429 14.1497 13.3178 14.2891 13.3945C14.4587 13.4879 14.6299 13.578 14.8021 13.6667C14.9931 13.7651 15.1825 13.8658 15.3707 13.9694C15.5134 14.0477 15.6574 14.1232 15.8021 14.1979C15.9655 14.2823 16.1279 14.3683 16.2891 14.457C16.4587 14.5504 16.6299 14.6405 16.8021 14.7292C16.9931 14.8276 17.1825 14.9283 17.3707 15.0319C17.5134 15.1102 17.6574 15.1857 17.8021 15.2604C17.9655 15.3448 18.1279 15.4308 18.2891 15.5195C18.4587 15.6129 18.6299 15.703 18.8021 15.7917C18.9931 15.8901 19.1825 15.9908 19.3707 16.0944C19.5134 16.1727 19.6574 16.2482 19.8021 16.3229C19.9655 16.4073 20.1279 16.4933 20.2891 16.582C20.4587 16.6754 20.6299 16.7655 20.8021 16.8542C20.9931 16.9526 21.1825 17.0533 21.3707 17.1569C21.5134 17.2352 21.6574 17.3107 21.8021 17.3854C22.0084 17.492 22.2128 17.6019 22.4163 17.7136C22.5547 17.7895 22.6939 17.8637 22.8333 17.9375C22.8333 17.9513 22.8333 17.965 22.8333 17.9792C22.5368 18.1392 22.2398 18.2978 21.9401 18.4518C21.7661 18.5412 21.5931 18.632 21.4219 18.7266C21.2162 18.8401 21.0075 18.9474 20.7985 19.0544C20.6037 19.1542 20.4104 19.2561 20.2189 19.362C19.9207 19.526 19.6169 19.6811 19.3125 19.8333C19.2596 19.811 19.2596 19.811 19.1924 19.7758C19.1803 19.7695 19.1682 19.7632 19.1557 19.7568C19.1159 19.736 19.0762 19.715 19.0365 19.694C19.0088 19.6795 18.9811 19.6651 18.9535 19.6506C18.7742 19.5567 18.5962 19.4606 18.419 19.3629C18.2769 19.2849 18.1336 19.2098 17.9896 19.1354C17.8261 19.051 17.6638 18.965 17.5026 18.8763C17.3329 18.7829 17.1617 18.6929 16.9896 18.6042C16.8174 18.5155 16.6462 18.4254 16.4766 18.332C16.2477 18.2061 16.0173 18.0821 15.7831 17.9663C15.7292 17.9375 15.7292 17.9375 15.6885 17.9057C15.6434 17.8726 15.6186 17.8594 15.5625 17.8542C15.4463 17.8921 15.3432 17.9507 15.237 18.0104C15.2058 18.0273 15.1747 18.0441 15.1435 18.0608C15.067 18.102 14.991 18.1439 14.9151 18.1861C14.861 18.2161 14.8065 18.2458 14.7521 18.2754C14.699 18.3043 14.646 18.3332 14.5931 18.3625C14.4215 18.457 14.2473 18.5461 14.0729 18.6354C13.8618 18.7435 13.6521 18.8533 13.4446 18.968C13.2513 19.0743 13.0551 19.1748 12.8588 19.2754C12.8327 19.2887 12.8067 19.3021 12.7807 19.3154C12.768 19.3219 12.7553 19.3284 12.7423 19.3351C12.6736 19.3704 12.6053 19.4063 12.5373 19.443C12.5159 19.4546 12.5159 19.4546 12.4939 19.4664C12.4663 19.4814 12.4388 19.4964 12.4113 19.5115C12.3171 19.5625 12.3171 19.5625 12.2708 19.5625C12.2708 19.5763 12.2708 19.59 12.2708 19.6042C12.2974 19.6122 12.2974 19.6122 12.3244 19.6204C12.3996 19.6472 12.4681 19.681 12.5381 19.7188C12.5517 19.726 12.5653 19.7332 12.5793 19.7407C12.6241 19.7645 12.6688 19.7885 12.7135 19.8125C12.7452 19.8294 12.7768 19.8462 12.8084 19.8631C12.8742 19.8981 12.9399 19.9332 13.0057 19.9683C13.0996 20.0185 13.1937 20.0683 13.2879 20.1181C13.3027 20.1259 13.3176 20.1337 13.3328 20.1418C13.3625 20.1575 13.3922 20.1732 13.4219 20.1888C13.6786 20.3245 13.9347 20.4612 14.1905 20.5986C14.3604 20.6897 14.5312 20.7791 14.7023 20.8679C14.8542 20.9469 15.0045 21.0287 15.1544 21.1113C15.2634 21.171 15.373 21.2292 15.4835 21.286C15.4962 21.2925 15.509 21.2991 15.5221 21.3058C15.5846 21.338 15.6473 21.3699 15.71 21.4017C15.7327 21.4133 15.7554 21.4249 15.7787 21.4368C15.7988 21.447 15.8189 21.4572 15.8396 21.4677C15.8983 21.5014 15.9484 21.5398 16 21.5833C15.7418 21.7266 15.4815 21.8653 15.2187 22C15.0343 22.0946 14.8507 22.1901 14.6693 22.2904C14.4645 22.4035 14.2567 22.5103 14.0484 22.6169C13.8536 22.7168 13.6603 22.8186 13.4688 22.9246C13.2597 23.0397 13.047 23.1478 12.8344 23.2563C12.82 23.2637 12.8055 23.2711 12.7906 23.2787C12.7635 23.2926 12.7363 23.3065 12.7091 23.3203C12.6537 23.3486 12.6011 23.3771 12.5496 23.4122C12.5 23.4375 12.5 23.4375 12.4476 23.434C12.3942 23.4161 12.3468 23.395 12.297 23.3687C12.278 23.3588 12.2591 23.3489 12.2396 23.3387C12.2093 23.3225 12.2093 23.3225 12.1784 23.306C12.1571 23.2948 12.1359 23.2836 12.114 23.272C11.954 23.1873 11.7952 23.1006 11.6366 23.0134C11.4608 22.9172 11.2829 22.8254 11.1048 22.7336C10.938 22.6475 10.7729 22.5586 10.6085 22.4681C10.4658 22.3898 10.3217 22.3143 10.1771 22.2396C10.0136 22.1552 9.85126 22.0692 9.6901 21.9805C9.52043 21.8871 9.34925 21.797 9.17708 21.7083C8.98609 21.6099 8.79669 21.5092 8.60848 21.4056C8.46576 21.3273 8.32172 21.2518 8.17708 21.1771C8.01364 21.0927 7.85126 21.0067 7.6901 20.918C7.52043 20.8246 7.34925 20.7345 7.17708 20.6458C6.98609 20.5474 6.79669 20.4467 6.60848 20.3431C6.46576 20.2648 6.32172 20.1893 6.17708 20.1146C6.01364 20.0302 5.85126 19.9442 5.6901 19.8555C5.52043 19.7621 5.34925 19.672 5.17708 19.5833C4.98609 19.4849 4.79669 19.3842 4.60848 19.2806C4.46576 19.2023 4.32172 19.1268 4.17708 19.0521C4.01364 18.9677 3.85126 18.8817 3.6901 18.793C3.52043 18.6996 3.34925 18.6095 3.17708 18.5208C2.94489 18.4012 2.71508 18.2777 2.48625 18.1517C2.3801 18.0935 2.27338 18.0363 2.16667 17.9792C2.16667 17.9654 2.16667 17.9517 2.16667 17.9375C2.46316 17.7775 2.76024 17.6189 3.0599 17.4648C3.233 17.3759 3.40517 17.2856 3.57552 17.1914C3.78975 17.073 4.00742 16.9617 4.22532 16.8503C4.41018 16.7558 4.59428 16.6603 4.77604 16.5599C4.94994 16.4643 5.12431 16.3696 5.29986 16.2771C5.32887 16.2618 5.35781 16.2463 5.38668 16.2307C5.42711 16.2089 5.46775 16.1875 5.50846 16.1663C5.54369 16.1475 5.54369 16.1475 5.57963 16.1284C5.67302 16.0942 5.73182 16.1086 5.82174 16.1463C5.83824 16.1551 5.85474 16.1639 5.87174 16.1729C5.89059 16.1829 5.90944 16.1928 5.92885 16.203C5.94889 16.2138 5.96893 16.2246 5.98958 16.2357C6.01075 16.2469 6.03192 16.2581 6.05373 16.2697C6.21328 16.3545 6.37177 16.4412 6.53011 16.5283C6.70585 16.6245 6.88379 16.7163 7.06191 16.8081C7.22772 16.8937 7.3918 16.9821 7.55526 17.0721C7.70575 17.1547 7.85783 17.2339 8.01042 17.3125C8.18258 17.4012 8.35376 17.4913 8.52344 17.5846C8.70857 17.6865 8.8953 17.785 9.08316 17.8818C9.18239 17.9329 9.28122 17.9844 9.37882 18.0387C9.39506 18.0476 9.4113 18.0565 9.42803 18.0657C9.45764 18.0821 9.48711 18.0987 9.51642 18.1156C9.59891 18.161 9.63943 18.1714 9.72917 18.1458C9.76574 18.1296 9.80173 18.112 9.83716 18.0933C9.86834 18.0771 9.86834 18.0771 9.90015 18.0604C9.92236 18.0487 9.94457 18.0369 9.96745 18.0247C9.99076 18.0125 10.0141 18.0003 10.0381 17.9877C10.2009 17.9019 10.3623 17.8139 10.5234 17.7251C10.7129 17.6213 10.9051 17.5232 11.0974 17.4247C11.2745 17.334 11.4508 17.2422 11.625 17.1458C11.8457 17.0238 12.0698 16.9088 12.2942 16.7938C12.3233 16.7789 12.3523 16.7641 12.3813 16.7492C12.3954 16.742 12.4094 16.7348 12.4238 16.7274C12.5504 16.6624 12.6763 16.596 12.8012 16.5278C12.8914 16.4792 12.8914 16.4792 12.9375 16.4792C12.8843 16.4181 12.8247 16.3874 12.7528 16.351C12.7347 16.3417 12.7347 16.3417 12.7163 16.3323C12.6903 16.3191 12.6643 16.3059 12.6383 16.2927C12.5693 16.2578 12.5004 16.2224 12.4316 16.1871C12.4108 16.1765 12.4108 16.1765 12.3897 16.1656C12.2709 16.1046 12.1534 16.0411 12.0365 15.9766C11.8762 15.8882 11.7147 15.8027 11.5521 15.7188C11.3886 15.6343 11.2263 15.5484 11.0651 15.4596C10.8717 15.3532 10.676 15.2514 10.4797 15.1502C10.3141 15.0647 10.1501 14.9765 9.98687 14.8865C9.80917 14.7889 9.62917 14.696 9.44865 14.6038C9.29604 14.5255 9.14731 14.4421 9 14.3542C9.06319 14.3042 9.12827 14.2654 9.1993 14.2275C9.22246 14.2151 9.24562 14.2027 9.26948 14.1899C9.29467 14.1765 9.31986 14.1631 9.34505 14.1497C9.37122 14.1358 9.39739 14.1218 9.42355 14.1078C9.62374 14.0012 9.82506 13.8968 10.0267 13.7929C10.1699 13.7188 10.3119 13.643 10.4531 13.5651C10.651 13.456 10.8516 13.3523 11.0526 13.2492C11.2427 13.1517 11.4311 13.0519 11.6181 12.9486C11.8745 12.8077 12.1355 12.6752 12.3958 12.5417C12.1894 12.423 11.9803 12.3105 11.7689 12.2011C11.6314 12.1297 11.4951 12.0565 11.3594 11.9818C11.1651 11.8749 10.9686 11.7727 10.7715 11.6711C10.6047 11.585 10.4396 11.4961 10.2751 11.4056C10.1324 11.3273 9.98838 11.2518 9.84375 11.1771C9.6803 11.0927 9.51793 11.0067 9.35677 10.918C9.1871 10.8246 9.01591 10.7345 8.84375 10.6458C8.65276 10.5474 8.46335 10.4467 8.27515 10.3431C8.13243 10.2648 7.98838 10.1893 7.84375 10.1146C7.6803 10.0302 7.51793 9.94419 7.35677 9.85547C7.1871 9.76209 7.01591 9.67203 6.84375 9.58333C6.65276 9.48493 6.46335 9.38421 6.27515 9.2806C6.13243 9.20228 5.98838 9.12679 5.84375 9.05208C5.66047 8.95741 5.47883 8.86024 5.2981 8.76082C5.1328 8.67021 4.96564 8.58345 4.79817 8.49694C4.65695 8.42381 4.51692 8.34883 4.3776 8.27214C4.20793 8.17875 4.03675 8.0887 3.86458 8C3.67362 7.90162 3.48424 7.80092 3.29607 7.69731C3.15248 7.6185 3.00751 7.5426 2.86198 7.46745C2.63497 7.35021 2.41058 7.22871 2.1875 7.10417C2.1875 7.08354 2.1875 7.06292 2.1875 7.04167C2.48399 6.88164 2.78107 6.72304 3.08073 6.56901C3.25469 6.47958 3.42772 6.38884 3.59896 6.29427C3.80462 6.18071 4.01329 6.07345 4.22238 5.96639C4.39953 5.87564 4.57577 5.78379 4.75 5.6875C4.82629 5.64565 4.90269 5.60402 4.97917 5.5625C4.99918 5.55162 4.99918 5.55162 5.01959 5.54052C5.11175 5.49049 5.20418 5.44101 5.29692 5.39205C5.32792 5.37559 5.35885 5.35898 5.38969 5.34222C5.43299 5.31873 5.47654 5.29579 5.52018 5.27295C5.53312 5.26578 5.54606 5.25861 5.55938 5.25123C5.62485 5.2177 5.65916 5.20676 5.73201 5.22201C5.7517 5.23124 5.77138 5.24048 5.79167 5.25C5.80846 5.25783 5.82526 5.26565 5.84257 5.27371C5.85907 5.28238 5.87558 5.29104 5.89258 5.29997C5.91142 5.30982 5.93027 5.31967 5.94969 5.32982C5.96973 5.34044 5.98977 5.35105 6.01042 5.36198C6.03159 5.3731 6.05275 5.38422 6.07456 5.39568C6.23428 5.47989 6.39274 5.56628 6.55094 5.65327C6.72666 5.7495 6.90457 5.8413 7.08265 5.93305C7.24946 6.01921 7.41456 6.10803 7.57902 6.19857C7.72174 6.27689 7.86578 6.35237 8.01042 6.42708C8.19264 6.52121 8.37321 6.61782 8.55287 6.71674C8.73046 6.81411 8.91029 6.90701 9.09058 6.99926C9.1942 7.05252 9.29694 7.10614 9.39705 7.16577C9.41232 7.17483 9.4276 7.18389 9.44333 7.19322C9.47049 7.2096 9.49745 7.22633 9.52412 7.24351C9.58198 7.27846 9.61493 7.29329 9.68254 7.28239C9.77898 7.23609 9.8742 7.18808 9.96875 7.13802C10.0006 7.12127 10.0006 7.12127 10.0332 7.10418C10.1899 7.02156 10.3453 6.93659 10.5005 6.85113C10.6907 6.74706 10.8836 6.64853 11.0765 6.54974C11.2537 6.45898 11.43 6.36719 11.6042 6.27083C11.7946 6.16556 11.9875 6.06549 12.181 5.96615C12.2108 5.95083 12.2406 5.93552 12.2704 5.9202C12.3276 5.89082 12.3849 5.86145 12.4421 5.83208C12.5483 5.77757 12.6545 5.72302 12.7604 5.66797C12.7765 5.65975 12.7925 5.65153 12.8091 5.64306C12.8866 5.6067 12.8866 5.6067 12.9375 5.54167C12.9191 5.53592 12.9008 5.53017 12.8819 5.52424C12.8184 5.50206 12.762 5.47657 12.7025 5.44548C12.6817 5.43468 12.661 5.42389 12.6397 5.41277C12.6176 5.40116 12.5956 5.38956 12.5729 5.3776C12.5498 5.3655 12.5267 5.3534 12.5028 5.34094C12.3374 5.25405 12.1732 5.16494 12.0094 5.07484C11.8582 4.99194 11.7054 4.91232 11.5521 4.83333C11.3611 4.73493 11.1717 4.63421 10.9835 4.5306C10.8408 4.45228 10.6967 4.37679 10.5521 4.30208C10.3886 4.21766 10.2263 4.13169 10.0651 4.04297C9.86885 3.93497 9.67051 3.83127 9.47132 3.72881C9.3132 3.64739 9.15632 3.56398 9 3.47917C9.05165 3.42087 9.10793 3.38885 9.17643 3.35246C9.19966 3.34006 9.22289 3.32766 9.24682 3.31489C9.27218 3.3015 9.29755 3.28812 9.32292 3.27474C9.34918 3.26078 9.37544 3.24682 9.4017 3.23284C9.60229 3.12632 9.80397 3.02193 10.0058 2.91785C10.1491 2.84382 10.2911 2.76796 10.4323 2.6901C10.6302 2.58096 10.8307 2.4773 11.0318 2.37416C11.221 2.27711 11.4085 2.17779 11.5945 2.07496C11.7946 1.96495 11.9979 1.86111 12.2012 1.75712C12.2215 1.74674 12.2215 1.74674 12.2421 1.73615C12.279 1.71725 12.3159 1.6984 12.3528 1.67956C12.4165 1.64715 12.4165 1.64715 12.4733 1.60894C12.489 1.60049 12.5047 1.59204 12.5208 1.58333Z" fill="var(--fill-0, black)"/>
<path id="Vector_2" d="M12.5208 1.58333C12.5737 1.60011 12.6114 1.61743 12.6589 1.64453C12.6886 1.66046 12.7183 1.67638 12.748 1.6923C12.7647 1.70142 12.7813 1.71053 12.7985 1.71992C12.8603 1.75329 12.9226 1.78545 12.985 1.81746C13.2265 1.94125 13.4663 2.0677 13.704 2.19855C13.8467 2.27688 13.9908 2.35237 14.1354 2.42708C14.2989 2.51151 14.4612 2.59748 14.6224 2.6862C14.7921 2.77958 14.9633 2.86963 15.1354 2.95833C15.3264 3.05673 15.5158 3.15746 15.704 3.26107C15.8467 3.33938 15.9908 3.41487 16.1354 3.48958C16.2989 3.57401 16.4612 3.65998 16.6224 3.7487C16.7921 3.84208 16.9633 3.93213 17.1354 4.02083C17.3264 4.11923 17.5158 4.21996 17.704 4.32357C17.8467 4.40188 17.9908 4.47737 18.1354 4.55208C18.2989 4.63651 18.4612 4.72248 18.6224 4.8112C18.7921 4.90458 18.9633 4.99463 19.1354 5.08333C19.3264 5.18173 19.5158 5.28246 19.704 5.38607C19.8467 5.46439 19.9908 5.53987 20.1354 5.61458C20.2989 5.69901 20.4612 5.78498 20.6224 5.8737C20.7921 5.96708 20.9633 6.05713 21.1354 6.14583C21.3264 6.24422 21.5158 6.34492 21.7039 6.44852C21.8475 6.52733 21.9925 6.60323 22.138 6.67839C22.365 6.79562 22.5894 6.91713 22.8125 7.04167C22.8125 7.06229 22.8125 7.08292 22.8125 7.10417C22.5476 7.25147 22.2802 7.39314 22.0104 7.53125C21.819 7.62925 21.6283 7.72786 21.4401 7.83203C21.2276 7.94963 21.0116 8.05999 20.7955 8.17053C20.6115 8.26464 20.4283 8.35962 20.2474 8.45964C20.172 8.50105 20.0964 8.54225 20.0208 8.58333C20.0075 8.59056 19.9942 8.5978 19.9805 8.60525C19.8884 8.6553 19.7959 8.70479 19.7031 8.75376C19.6721 8.77023 19.6412 8.78685 19.6103 8.80362C19.567 8.82711 19.5235 8.85005 19.4798 8.87288C19.4669 8.88005 19.4539 8.88722 19.4406 8.8946C19.3751 8.92814 19.3408 8.93907 19.268 8.92383C19.2385 8.90997 19.2385 8.90997 19.2083 8.89583C19.1915 8.88801 19.1747 8.88018 19.1574 8.87212C19.1409 8.86346 19.1244 8.85479 19.1074 8.84587C19.0886 8.83601 19.0697 8.82616 19.0503 8.81601C19.0303 8.8054 19.0102 8.79479 18.9896 8.78385C18.9684 8.77273 18.9472 8.76161 18.9254 8.75015C18.7657 8.66595 18.6073 8.57955 18.4491 8.49256C18.2733 8.39634 18.0954 8.30454 17.9173 8.21278C17.7505 8.12663 17.5854 8.0378 17.421 7.94727C17.2783 7.86895 17.1342 7.79346 16.9896 7.71875C16.8075 7.62471 16.6271 7.5282 16.4476 7.42937C16.2648 7.32912 16.0797 7.23341 15.8942 7.13815C15.8715 7.12648 15.8488 7.11481 15.8254 7.10278C15.8053 7.09248 15.7852 7.08218 15.7645 7.07157C15.7083 7.04167 15.7083 7.04167 15.6554 7.0053C15.6063 6.97491 15.6063 6.97491 15.554 6.98154C15.4873 7.00433 15.4273 7.03363 15.3647 7.06616C15.3517 7.07285 15.3388 7.07953 15.3255 7.08642C15.2833 7.10826 15.2413 7.1303 15.1992 7.15234C15.1698 7.16766 15.1403 7.18298 15.1109 7.19828C14.9298 7.29261 14.7502 7.38922 14.5715 7.4879C14.393 7.58601 14.2118 7.67877 14.0306 7.77171C13.8603 7.8591 13.691 7.94775 13.5234 8.04036C13.3023 8.16257 13.0777 8.27794 12.8528 8.39298C12.6647 8.48923 12.4778 8.58748 12.2917 8.6875C12.3492 8.73275 12.4067 8.76868 12.4718 8.802C12.4908 8.81179 12.5098 8.82157 12.5294 8.83166C12.5497 8.84209 12.5701 8.85253 12.5911 8.86328C12.7546 8.94769 12.917 9.03362 13.0781 9.1224C13.2724 9.22927 13.4689 9.33153 13.6661 9.4331C13.8319 9.51873 13.996 9.60707 14.1594 9.6971C14.3099 9.77967 14.462 9.85889 14.6146 9.9375C14.8043 10.0353 14.9926 10.1352 15.1794 10.2384C15.287 10.2976 15.3954 10.3549 15.5047 10.4108C15.5239 10.4207 15.5239 10.4207 15.5436 10.4307C15.6065 10.4629 15.6695 10.4949 15.7327 10.5267C15.7554 10.5383 15.7782 10.5499 15.8016 10.5618C15.8218 10.572 15.842 10.5822 15.8628 10.5927C15.9177 10.6256 15.957 10.6613 16 10.7083C15.9803 10.7184 15.9606 10.7284 15.9403 10.7388C15.4608 10.9834 15.4608 10.9834 14.9868 11.2385C14.8159 11.3326 14.6424 11.4215 14.4688 11.5104C14.2765 11.6089 14.0849 11.7079 13.8958 11.8125C13.6616 11.942 13.4235 12.0636 13.1854 12.1857C13.1711 12.193 13.1568 12.2004 13.1421 12.2079C13.128 12.2152 13.1139 12.2224 13.0993 12.2299C12.9502 12.3064 12.802 12.3844 12.6539 12.4628C12.619 12.4812 12.619 12.4812 12.5833 12.5C12.5689 12.5091 12.5544 12.5181 12.5395 12.5274C12.4625 12.5552 12.4001 12.5321 12.3275 12.4995C12.2698 12.4708 12.213 12.4407 12.1563 12.4102C12.1351 12.399 12.114 12.3878 12.0922 12.3762C11.9317 12.2909 11.7721 12.2037 11.6128 12.1161C11.4468 12.0251 11.2789 11.938 11.1107 11.8511C10.9695 11.778 10.8294 11.703 10.6901 11.6263C10.5204 11.5329 10.3492 11.4429 10.1771 11.3542C9.98609 11.2558 9.79669 11.155 9.60848 11.0514C9.46576 10.9731 9.32172 10.8976 9.17708 10.8229C9.01364 10.7385 8.85126 10.6525 8.6901 10.5638C8.52043 10.4704 8.34925 10.3804 8.17708 10.2917C7.98609 10.1933 7.79669 10.0925 7.60848 9.98893C7.46576 9.91062 7.32172 9.83513 7.17708 9.76042C6.99381 9.66574 6.81217 9.56858 6.63143 9.46916C6.46614 9.37854 6.29897 9.29178 6.1315 9.20528C5.99028 9.13214 5.85025 9.05716 5.71094 8.98047C5.54127 8.88709 5.37008 8.79703 5.19792 8.70833C5.00693 8.60993 4.81752 8.50921 4.62931 8.4056C4.4866 8.32728 4.34255 8.25179 4.19792 8.17708C4.03447 8.09266 3.8721 8.00669 3.71094 7.91797C3.54126 7.82459 3.37008 7.73454 3.19792 7.64583C2.96572 7.52618 2.73592 7.40269 2.50708 7.27674C2.40094 7.21851 2.29421 7.16135 2.1875 7.10417C2.1875 7.08354 2.1875 7.06292 2.1875 7.04167C2.48399 6.88164 2.78107 6.72304 3.08073 6.56901C3.25469 6.47958 3.42772 6.38884 3.59896 6.29427C3.80462 6.18071 4.01329 6.07345 4.22238 5.96639C4.39953 5.87564 4.57577 5.78379 4.75 5.6875C4.82629 5.64565 4.90269 5.60402 4.97917 5.5625C4.99918 5.55162 4.99918 5.55162 5.01959 5.54052C5.11175 5.49049 5.20418 5.44101 5.29692 5.39205C5.32792 5.37559 5.35885 5.35898 5.38969 5.34222C5.43299 5.31873 5.47654 5.29579 5.52018 5.27295C5.53312 5.26578 5.54606 5.25861 5.55938 5.25123C5.62485 5.2177 5.65916 5.20676 5.73202 5.22201C5.7517 5.23124 5.77139 5.24048 5.79167 5.25C5.80846 5.25783 5.82526 5.26565 5.84257 5.27371C5.85907 5.28238 5.87558 5.29104 5.89258 5.29997C5.91142 5.30982 5.93027 5.31967 5.94969 5.32982C5.96973 5.34044 5.98977 5.35105 6.01042 5.36198C6.03159 5.3731 6.05275 5.38422 6.07456 5.39568C6.23428 5.47989 6.39274 5.56628 6.55094 5.65327C6.72666 5.7495 6.90457 5.8413 7.08265 5.93305C7.24946 6.01921 7.41456 6.10803 7.57902 6.19857C7.72174 6.27689 7.86578 6.35237 8.01042 6.42708C8.19264 6.52121 8.37321 6.61782 8.55287 6.71674C8.73046 6.81411 8.91029 6.90701 9.09058 6.99926C9.1942 7.05252 9.29694 7.10614 9.39705 7.16577C9.41232 7.17483 9.4276 7.18389 9.44333 7.19322C9.47049 7.2096 9.49745 7.22633 9.52412 7.24351C9.58198 7.27846 9.61493 7.29329 9.68254 7.28239C9.77898 7.23609 9.8742 7.18808 9.96875 7.13802C10.0006 7.12127 10.0006 7.12127 10.0332 7.10418C10.1899 7.02156 10.3453 6.93659 10.5005 6.85113C10.6907 6.74706 10.8836 6.64853 11.0765 6.54974C11.2537 6.45898 11.43 6.36719 11.6042 6.27083C11.7946 6.16556 11.9875 6.06549 12.181 5.96615C12.2108 5.95083 12.2406 5.93552 12.2704 5.9202C12.3276 5.89082 12.3849 5.86145 12.4421 5.83208C12.5483 5.77757 12.6545 5.72302 12.7604 5.66797C12.7765 5.65975 12.7925 5.65153 12.8091 5.64306C12.8866 5.6067 12.8866 5.6067 12.9375 5.54167C12.9191 5.53592 12.9008 5.53017 12.8819 5.52424C12.8184 5.50206 12.762 5.47657 12.7025 5.44548C12.6817 5.43468 12.661 5.42389 12.6397 5.41277C12.6176 5.40116 12.5956 5.38956 12.5729 5.3776C12.5498 5.3655 12.5267 5.3534 12.5028 5.34094C12.3374 5.25405 12.1732 5.16494 12.0094 5.07484C11.8582 4.99194 11.7054 4.91232 11.5521 4.83333C11.3611 4.73493 11.1717 4.63421 10.9835 4.5306C10.8408 4.45228 10.6967 4.37679 10.5521 4.30208C10.3886 4.21766 10.2263 4.13169 10.0651 4.04297C9.86885 3.93497 9.67051 3.83127 9.47132 3.72881C9.3132 3.64739 9.15632 3.56398 9 3.47917C9.05165 3.42087 9.10793 3.38885 9.17643 3.35246C9.19966 3.34006 9.22289 3.32766 9.24682 3.31489C9.27218 3.3015 9.29755 3.28812 9.32292 3.27474C9.34918 3.26078 9.37544 3.24682 9.4017 3.23284C9.60229 3.12632 9.80397 3.02193 10.0058 2.91785C10.1491 2.84382 10.2911 2.76796 10.4323 2.6901C10.6302 2.58096 10.8307 2.4773 11.0318 2.37416C11.221 2.27711 11.4085 2.17779 11.5945 2.07496C11.7946 1.96495 11.9979 1.86111 12.2012 1.75712C12.2215 1.74674 12.2215 1.74674 12.2421 1.73615C12.279 1.71725 12.3159 1.6984 12.3528 1.67956C12.4165 1.64715 12.4165 1.64715 12.4733 1.60894C12.489 1.60049 12.5047 1.59204 12.5208 1.58333Z" fill="var(--fill-0, #513CE1)"/>
</g>
</svg>
