<svg preserveAspectRatio="none" width="100%" height="100%" overflow="visible" style="display: block;" viewBox="0 0 25 25" fill="none" xmlns="http://www.w3.org/2000/svg">
<g id="Jest">
<path id="Vector" d="M23.4348 12.3089C23.4348 11.0238 22.2841 9.98196 20.8649 9.98196C20.7735 9.98196 20.6835 9.98639 20.5947 9.9949L24.1245 0.568322H9.12406L12.649 9.98666C12.5969 9.98369 12.5448 9.98216 12.4927 9.98205C11.0735 9.98205 9.92282 11.0237 9.92282 12.309C9.92282 13.3478 10.6747 14.2273 11.7124 14.5265C11.1643 15.3861 10.4747 16.1603 9.69165 16.8293C8.6269 17.7387 7.40837 18.4284 6.09045 18.8533C4.5213 18.1234 3.78036 16.5002 4.44891 15.077C4.52443 14.9163 4.60152 14.7534 4.67518 14.5912C5.81193 14.3509 6.65911 13.4282 6.65911 12.3257C6.65911 11.0405 5.50847 9.99871 4.0891 9.99871C2.66973 9.99871 1.51919 11.0405 1.51919 12.3257C1.51919 13.1138 1.95217 13.8099 2.61416 14.2308C1.97809 15.5422 1.04306 16.9146 0.751735 18.5052C0.40259 20.4114 0.750561 22.4349 2.57141 23.5777C6.81202 26.239 11.4152 21.9279 16.2686 20.8441C18.0275 20.4515 19.9583 20.5147 21.508 19.7021C22.6717 19.0918 23.439 18.0803 23.6566 16.9448C23.8719 15.823 23.5582 14.7061 22.837 13.8005C23.224 13.3825 23.4356 12.8543 23.4348 12.3089Z" fill="var(--fill-0, #99425B)"/>
<path id="Vector_2" d="M23.0383 16.8475C22.8493 17.8334 22.1768 18.6945 21.1935 19.2103C20.2767 19.691 19.1782 19.8345 18.0151 19.9863C17.392 20.0677 16.7477 20.1519 16.1183 20.2924C14.4541 20.664 12.8421 21.389 11.2833 22.0901C8.16359 23.4932 5.46943 24.7048 2.92906 23.1105C1.0682 21.9428 1.15409 19.7822 1.37087 18.5982C1.57181 17.5013 2.11504 16.491 2.64028 15.5141C2.72976 15.348 2.81852 15.1817 2.90656 15.015C3.17133 15.1109 3.44914 15.174 3.73252 15.2026C3.19779 16.8005 4.03871 18.5379 5.80361 19.3588L6.04524 19.4713L6.30096 19.3888C7.69627 18.9388 8.98201 18.2169 10.1224 17.2426C10.8595 16.6129 11.4933 15.9162 12.0143 15.1718C12.1726 15.1934 12.3326 15.2043 12.4927 15.2043C14.1126 15.2043 15.454 14.1078 15.6616 12.6916C16.3247 12.6696 17.029 12.6695 17.6958 12.6914C17.9032 14.1078 19.2448 15.2044 20.8648 15.2044C21.5421 15.2044 22.1704 15.0122 22.688 14.6857C23.0473 15.3517 23.1814 16.1011 23.0383 16.8475ZM4.08919 10.567C5.1602 10.567 6.03145 11.356 6.03145 12.3258C6.03145 12.6741 5.91856 12.9989 5.72476 13.2724C5.40193 13.7283 4.85312 14.0408 4.22263 14.0798C4.17851 14.0825 4.134 14.0844 4.08919 14.0844C3.85049 14.0844 3.62187 14.045 3.41047 13.9734C2.98471 13.8285 2.62817 13.5535 2.40236 13.196C2.23469 12.9311 2.14659 12.6311 2.14684 12.3258C2.14684 11.356 3.01818 10.567 4.08919 10.567ZM10.5506 12.309C10.5506 11.4279 11.2699 10.6964 12.2045 10.5699C12.2986 10.557 12.3949 10.5504 12.4928 10.5504C13.1155 10.5504 13.6699 10.8174 14.0254 11.2313C14.1144 11.3345 14.1905 11.4463 14.2521 11.5648C14.3729 11.7976 14.4353 12.0518 14.4351 12.309C14.4351 12.4496 14.4163 12.5863 14.3818 12.7174C14.1925 13.4349 13.5168 13.9833 12.6888 14.0588C12.6244 14.0647 12.5591 14.0677 12.4928 14.0677C12.1192 14.0679 11.7536 13.9701 11.4402 13.7859C10.9055 13.4722 10.5506 12.9276 10.5506 12.309ZM18.657 10.2177C18.2343 10.583 17.9302 11.0461 17.7774 11.5567C17.0454 11.5323 16.3125 11.5323 15.5804 11.5567C15.4161 11.0047 15.0755 10.5177 14.6171 10.1478L16.627 6.46804L18.657 10.2177ZM9.99951 1.13682H23.2489L20.1195 9.49381C19.9849 9.523 19.8525 9.56014 19.7232 9.60497L16.6319 3.89491L13.5317 9.57087C13.3966 9.52887 13.2585 9.49516 13.1183 9.46998L9.99951 1.13682ZM22.807 12.3091C22.807 12.4854 22.778 12.6556 22.7244 12.8164C22.5975 13.1949 22.3338 13.5238 21.9758 13.7505C21.6503 13.9573 21.2623 14.0681 20.8648 14.0678C19.968 14.0678 19.2115 13.5144 18.989 12.765C18.9448 12.6164 18.9225 12.4631 18.9225 12.3091C18.9225 12.0687 18.9761 11.8395 19.073 11.6306C19.1229 11.5237 19.1845 11.4216 19.2567 11.3257C19.6062 10.8585 20.196 10.5505 20.8648 10.5505C20.9261 10.5505 20.9866 10.5533 21.0465 10.5584C22.0326 10.6416 22.807 11.3948 22.807 12.3091ZM24.0624 12.3091C24.0624 10.8956 22.9376 9.71614 21.4561 9.46422L25 0H8.2486L11.798 9.48335C10.3679 9.7715 9.29525 10.9286 9.29525 12.309C9.29525 13.3456 9.90021 14.256 10.8069 14.7676C10.3708 15.356 9.85365 15.9096 9.26101 16.4159C8.32109 17.2187 7.27405 17.8276 6.14522 18.2282C5.00818 17.5815 4.52755 16.3619 5.02667 15.2994L5.0658 15.2162L5.13917 15.0599C6.38803 14.6655 7.28676 13.5893 7.28676 12.3258C7.28676 10.7292 5.85233 9.43038 4.08919 9.43038C2.32606 9.43038 0.891425 10.7292 0.891425 12.3258C0.891425 13.1316 1.2573 13.8613 1.84602 14.3867C1.73622 14.5974 1.62476 14.8073 1.51165 15.0165C0.973306 16.0176 0.363257 17.1522 0.132483 18.4122C-0.325738 20.9146 0.413442 22.9149 2.21395 24.0448C3.30648 24.7304 4.41603 25 5.53253 25C7.63483 25 9.76159 24.0436 11.8417 23.108C13.3397 22.4344 14.8888 21.7377 16.4189 21.396C16.9883 21.2689 17.5741 21.1923 18.1943 21.1114C19.4243 20.9507 20.696 20.7846 21.8226 20.1939C23.1285 19.509 24.0223 18.3601 24.2751 17.0421C24.4921 15.9105 24.231 14.7771 23.5941 13.8158C23.901 13.3624 24.0631 12.8409 24.0624 12.3091Z" fill="var(--fill-0, black)"/>
</g>
</svg>
