<svg preserveAspectRatio="none" width="100%" height="100%" overflow="visible" style="display: block;" viewBox="0 0 42 14" fill="none" xmlns="http://www.w3.org/2000/svg">
<g id="NodeJS-2">
<path id="Vector" d="M11.4693 4.74784L8.198 6.55784C8.07533 6.62518 8 6.75051 8 6.88584V10.5078C8 10.6432 8.07533 10.7678 8.198 10.8358L11.47 12.6472C11.592 12.7145 11.7433 12.7145 11.8653 12.6472L15.1367 10.8358C15.258 10.7678 15.3333 10.6432 15.3333 10.5078V6.88584C15.3333 6.75051 15.258 6.62584 15.1353 6.55784L11.8647 4.74784C11.8033 4.71384 11.7347 4.69718 11.6667 4.69718C11.598 4.69718 11.53 4.71384 11.4687 4.74784M28.3007 8.00851L27.7553 8.30984C27.7347 8.32118 27.7227 8.34184 27.7227 8.36451V8.96851C27.7227 8.99118 27.7353 9.01184 27.7553 9.02318L28.3007 9.32518C28.3213 9.33651 28.346 9.33651 28.3667 9.32518L28.912 9.02318C28.932 9.01184 28.9447 8.99118 28.9447 8.96851V8.36451C28.9447 8.34184 28.932 8.32118 28.9113 8.30984L28.366 8.00851C28.356 8.00251 28.3447 7.99984 28.3333 7.99984C28.322 7.99984 28.3107 8.00251 28.3007 8.00851Z" fill="var(--fill-0, #388E3C)"/>
<path id="Vector_2" d="M23.834 0.909178L22.2413 0.0205115C22.1913 -0.00748846 22.13 -0.00682161 22.0807 0.0225117C22.0313 0.051845 22.0007 0.104511 22.0007 0.161845L22 5.52984L20.5313 4.71718C20.47 4.68318 20.4013 4.66651 20.3333 4.66651C20.2653 4.66651 20.1967 4.68318 20.1353 4.71718H20.136L16.8647 6.52718C16.742 6.59451 16.6667 6.71984 16.6667 6.85451V10.4765C16.6667 10.6118 16.742 10.7365 16.8647 10.8045L20.1367 12.6158C20.2587 12.6832 20.41 12.6832 20.532 12.6158L23.8033 10.8045C23.9247 10.7372 24 10.6118 24 10.4765V1.19184C24 1.07451 23.936 0.966512 23.834 0.909178ZM21.9107 9.63851L20.424 10.4618C20.3687 10.4925 20.3 10.4925 20.2447 10.4618L18.7573 9.63851C18.7007 9.60784 18.6667 9.55051 18.6667 9.48918V7.84251C18.6667 7.78118 18.7007 7.72451 18.7567 7.69318L20.244 6.87051C20.272 6.85518 20.302 6.84784 20.3333 6.84784C20.3647 6.84784 20.3953 6.85584 20.4233 6.87051L21.91 7.69318C21.966 7.72451 22 7.78184 22 7.84318V9.48984C22 9.55051 21.966 9.60784 21.9107 9.63851Z" fill="var(--fill-0, #37474F)"/>
<path id="Vector_3" d="M11.4693 4.74784L8 10.5078C8 10.6432 8.07533 10.7678 8.198 10.8358L11.47 12.6472C11.592 12.7145 11.7433 12.7145 11.8653 12.6472L15.3333 6.88584C15.3333 6.75051 15.258 6.62584 15.1353 6.55784L11.8647 4.74784C11.8033 4.71384 11.7347 4.69718 11.6667 4.69718C11.598 4.69718 11.53 4.71384 11.4687 4.74784" fill="var(--fill-0, #2E7D32)"/>
<path id="Vector_4" d="M11.4693 4.74784L8.198 6.55784C8.07533 6.62518 8 6.75051 8 6.88584L11.4693 12.6472C11.5913 12.7145 11.7427 12.7145 11.8647 12.6472L15.136 10.8358C15.258 10.7678 15.3333 10.6432 15.3333 10.5078L11.8647 4.74784C11.8033 4.71384 11.7347 4.69718 11.6667 4.69718C11.598 4.69718 11.53 4.71384 11.4687 4.74784" fill="var(--fill-0, #4CAF50)"/>
<path id="Vector_5" d="M31.802 6.52718L28.5313 4.71718C28.47 4.68318 28.4013 4.66651 28.3333 4.66651C28.2653 4.66651 28.1967 4.68318 28.1353 4.71718L24.8647 6.52718C24.7427 6.59451 24.6667 6.72251 24.6667 6.86251V10.4698C24.6667 10.6092 24.7427 10.7378 24.8647 10.8052L28.1367 12.6165C28.2593 12.6845 28.4093 12.6845 28.532 12.6165L30.0407 11.7812C30.1787 11.7045 30.178 11.5065 30.0393 11.4305L26.7567 9.63918C26.7013 9.60784 26.6667 9.54984 26.6667 9.48718V7.84318C26.6667 7.78184 26.7 7.72518 26.7533 7.69584L28.2433 6.87184H28.2427C28.2707 6.85651 28.3013 6.84918 28.3327 6.84918C28.364 6.84918 28.3947 6.85718 28.4227 6.87184L29.9127 7.69651C29.966 7.72584 29.9993 7.78251 29.9993 7.84384V9.18518C29.9993 9.24251 30.03 9.29584 30.08 9.32451C30.13 9.35251 30.1913 9.35251 30.2413 9.32384L31.84 8.39518C31.9387 8.33784 32 8.23184 32 8.11718V6.86384C32 6.72318 31.924 6.59451 31.802 6.52718ZM7.13533 6.52718L3.86467 4.71718C3.80333 4.68318 3.73467 4.66651 3.66667 4.66651C3.59867 4.66651 3.53 4.68318 3.46867 4.71718L0.198 6.52718C0.076 6.59451 0 6.72251 0 6.86251V11.8392C0 11.8965 0.0306667 11.9498 0.0806667 11.9785C0.130667 12.0065 0.192 12.0065 0.242 11.9778L1.84067 11.0492C1.93933 10.9918 2 10.8858 2 10.7712V7.84251C2 7.78118 2.03333 7.72451 2.08667 7.69518L3.57667 6.87118C3.60467 6.85584 3.63533 6.84851 3.66667 6.84851C3.698 6.84851 3.72867 6.85651 3.75667 6.87118L5.24667 7.69584C5.3 7.72518 5.33333 7.78184 5.33333 7.84318V10.7718C5.33333 10.8865 5.394 10.9925 5.49333 11.0498L7.092 11.9785C7.142 12.0072 7.20333 12.0072 7.25333 11.9792C7.30267 11.9498 7.33333 11.8965 7.33333 11.8392V6.86318C7.33333 6.72318 7.25733 6.59451 7.13533 6.52718Z" fill="var(--fill-0, #37474F)"/>
<g id="Frame">
<path id="Vector_6" d="M37.0015 13.4623C36.8819 13.4623 36.7633 13.431 36.6585 13.3706L35.5669 12.7242C35.4038 12.6329 35.4833 12.6006 35.5371 12.5821C35.7546 12.506 35.7985 12.4887 36.0306 12.3569C36.055 12.3429 36.0869 12.3479 36.1119 12.3627L36.9506 12.8604C36.9808 12.8769 37.024 12.8769 37.0519 12.8604L40.3221 10.9727C40.3523 10.9554 40.3721 10.9204 40.3721 10.8844V7.11083C40.3721 7.07313 40.3525 7.03958 40.3215 7.02083L37.0527 5.13458C37.0225 5.11667 36.9823 5.11667 36.9521 5.13458L33.6838 7.02063C33.6521 7.03854 33.6319 7.07375 33.6319 7.10979V10.8835C33.6319 10.9196 33.6515 10.954 33.6827 10.971L34.5783 11.4883C35.0646 11.7315 35.3617 11.445 35.3617 11.1569V7.4325C35.3617 7.37938 35.4033 7.33833 35.4567 7.33833H35.8708C35.9225 7.33833 35.965 7.37917 35.965 7.4325V11.1587C35.965 11.8071 35.6115 12.1796 34.9967 12.1796C34.8075 12.1796 34.6585 12.1796 34.2427 11.975L33.3848 11.4806C33.1727 11.3577 33.0417 11.1283 33.0417 10.8838V7.11C33.0417 6.86438 33.1727 6.63521 33.3846 6.51396L36.6583 4.62542C36.8654 4.50833 37.1404 4.50833 37.346 4.62542L40.6156 6.51479C40.8265 6.63667 40.9583 6.86521 40.9583 7.11083V10.8846C40.9583 11.1294 40.8265 11.3577 40.6154 11.4806L37.3458 13.369C37.241 13.4296 37.1223 13.4606 37.0013 13.4606" fill="var(--fill-0, #21A366)"/>
<path id="Vector_7" d="M38.0117 10.8619C36.5808 10.8619 36.2808 10.205 36.2808 9.65417C36.2808 9.60187 36.3231 9.56 36.3756 9.56H36.7981C36.8448 9.56 36.8842 9.59396 36.8915 9.64C36.9552 10.0704 37.1452 10.2875 38.0104 10.2875C38.6996 10.2875 38.9927 10.1319 38.9927 9.76625C38.9927 9.55583 38.9092 9.39958 37.8385 9.29479C36.9429 9.20646 36.3896 9.00917 36.3896 8.29292C36.3896 7.63313 36.9463 7.24021 37.8785 7.24021C38.9256 7.24021 39.4446 7.60375 39.51 8.38458C39.5125 8.41167 39.5027 8.43771 39.4846 8.4575C39.4667 8.47625 39.4413 8.48771 39.415 8.48771H38.9902C38.946 8.48771 38.9075 8.45667 38.8985 8.41396C38.7963 7.96125 38.549 7.81646 37.8769 7.81646C37.1246 7.81646 37.0371 8.07833 37.0371 8.27479C37.0371 8.51292 37.1402 8.5825 38.1552 8.71688C39.1604 8.85021 39.6377 9.03854 39.6377 9.745C39.6377 10.4571 39.0433 10.8656 38.0071 10.8656" fill="var(--fill-0, #21A366)"/>
</g>
</g>
</svg>
