<svg preserveAspectRatio="none" width="100%" height="100%" overflow="visible" style="display: block;" viewBox="0 0 22.0894 20.1678" fill="none" xmlns="http://www.w3.org/2000/svg">
<g id="ReactJS">
<path id="Vector" fill-rule="evenodd" clip-rule="evenodd" d="M15.6309 0.00153468C15.2567 -0.0110509 14.865 0.0542002 14.4722 0.181535C13.6867 0.436208 12.8635 0.9325 12.0187 1.61966C11.6877 1.88896 11.3536 2.19679 11.0184 2.52341C10.6906 2.20508 10.3634 1.90551 10.0397 1.64216C9.19561 0.955549 8.37469 0.459061 7.59094 0.204968C6.80719 -0.0491246 6.02736 -0.0570013 5.38688 0.312781C4.7464 0.682564 4.36339 1.36136 4.19156 2.16716C4.01974 2.97295 4.03867 3.93255 4.21125 5.00684C4.2712 5.38 4.35669 5.77147 4.45406 6.17028C4.08809 6.2812 3.7327 6.39781 3.40313 6.52653C2.40852 6.915 1.58555 7.37975 0.986251 7.93279C0.386957 8.48582 0 9.15702 0 9.89404C0 10.6311 0.386957 11.3013 0.986251 11.8543C1.58554 12.4074 2.40852 12.8731 3.40313 13.2615C3.75553 13.3992 4.13707 13.5231 4.53094 13.6403C4.38926 14.1696 4.27448 14.6833 4.19625 15.1703C4.02353 16.2454 4.00529 17.2052 4.1775 18.0128C4.34972 18.8204 4.73292 19.503 5.37657 19.8747C6.02021 20.2463 6.80354 20.2371 7.58907 19.9825C8.3746 19.7278 9.19681 19.2324 10.0416 18.5453C10.3696 18.2785 10.7014 17.9741 11.0334 17.6509C11.3673 17.976 11.7004 18.2818 12.03 18.55C12.8741 19.2366 13.6959 19.7321 14.4797 19.9862C15.2634 20.2403 16.0433 20.2482 16.6838 19.8784C17.3242 19.5086 17.7063 18.8298 17.8781 18.024C18.05 17.2182 18.031 16.2596 17.8584 15.1853C17.78 14.697 17.6652 14.1816 17.5228 13.6506C17.9297 13.5306 18.3233 13.4033 18.6863 13.2615C19.6809 12.8731 20.5038 12.4074 21.1031 11.8543C21.7024 11.3013 22.0894 10.631 22.0894 9.89404C22.0894 9.15702 21.7024 8.48582 21.1031 7.93279C20.5038 7.37975 19.6809 6.91501 18.6863 6.52653C18.352 6.39597 17.9911 6.27783 17.6194 6.1656C17.7175 5.76434 17.8047 5.37006 17.865 4.99466C18.0377 3.91951 18.056 2.95885 17.8838 2.15122C17.7115 1.3436 17.3274 0.661895 16.6838 0.290288C16.3619 0.104485 16.0052 0.0141155 15.6309 0.00153468ZM15.5869 0.978407C15.8217 0.984829 16.0221 1.04072 16.1934 1.13966C16.5362 1.33754 16.7895 1.72268 16.9247 2.35653C17.0598 2.99039 17.0552 3.84679 16.8956 4.83997C16.841 5.18002 16.7617 5.54041 16.6716 5.90966C15.6897 5.67337 14.6138 5.49803 13.4672 5.39497C12.8915 4.59752 12.3001 3.87101 11.7037 3.22653C12.0192 2.91863 12.3326 2.63066 12.6384 2.38185C13.4188 1.74708 14.1575 1.31516 14.7741 1.11528C15.0823 1.01534 15.352 0.971984 15.5869 0.978407ZM6.47812 0.981219C6.71433 0.974624 6.9846 1.01787 7.29375 1.1181C7.91204 1.31855 8.65211 1.75028 9.43312 2.3856C9.73286 2.62942 10.0392 2.91191 10.3481 3.21248C9.74738 3.86223 9.15102 4.59502 8.57156 5.39966C7.42975 5.5046 6.35826 5.68088 5.38125 5.9181C5.2918 5.5509 5.21248 5.19236 5.15813 4.85404C4.99844 3.86 4.99445 3.00347 5.13 2.36779C5.26555 1.7321 5.52096 1.34406 5.86688 1.14435C6.03983 1.04449 6.24192 0.98781 6.47812 0.981219ZM11.0334 3.91747C11.4244 4.34299 11.8155 4.80863 12.2034 5.30966C11.8223 5.29376 11.4365 5.28434 11.0447 5.28434C10.6451 5.28434 10.2519 5.29407 9.86343 5.31059C10.2514 4.80918 10.6423 4.34331 11.0334 3.91747ZM11.0447 6.25372C11.6974 6.25372 12.3337 6.28054 12.9525 6.32591C13.3783 6.93751 13.7944 7.58634 14.1909 8.2731C14.5393 8.87653 14.8546 9.47903 15.1416 10.074C14.8516 10.6769 14.531 11.2876 14.1778 11.8993C13.8669 12.4379 13.5422 12.9493 13.2122 13.4425C12.5132 13.5009 11.7888 13.5334 11.0447 13.5334C10.2826 13.5334 9.54203 13.499 8.8275 13.4378C8.50296 12.9517 8.18376 12.448 7.87781 11.9181C7.52542 11.3077 7.2064 10.6982 6.91688 10.0965C7.20762 9.49147 7.52807 8.87855 7.8825 8.26465C8.27692 7.58149 8.69183 6.93641 9.11532 6.32777C9.74082 6.28138 10.3844 6.25372 11.0447 6.25372ZM14.1881 6.44591C14.9794 6.54464 15.7223 6.68171 16.4137 6.84622C16.2086 7.51877 15.9559 8.22126 15.6497 8.94622C15.4509 8.56298 15.245 8.17843 15.0225 7.7931C14.7529 7.32612 14.4721 6.88091 14.1881 6.44591ZM7.84968 6.45341C7.57172 6.88028 7.29821 7.31683 7.03406 7.77434C6.80873 8.16463 6.59855 8.55434 6.3975 8.94247C6.09395 8.22187 5.84276 7.52337 5.63906 6.85465C6.32532 6.68984 7.06393 6.55326 7.84968 6.45341ZM17.3634 7.10122C17.7037 7.20417 18.0323 7.31161 18.3337 7.42934C19.2506 7.78745 19.9759 8.21151 20.4459 8.64528C20.916 9.07905 21.12 9.49272 21.12 9.89403C21.12 10.2953 20.916 10.709 20.4459 11.1428C19.9759 11.5765 19.2506 12.0006 18.3337 12.3587C17.9988 12.4895 17.6307 12.6082 17.2481 12.7206C16.9752 11.8764 16.6268 10.9956 16.2122 10.0965C16.6889 9.06427 17.074 8.05781 17.3634 7.10122ZM4.70999 7.10591C4.99611 8.05295 5.37627 9.04941 5.84625 10.0712C5.42891 10.9756 5.07881 11.8613 4.80468 12.7103C4.43555 12.6008 4.07999 12.4854 3.75562 12.3587C2.83875 12.0006 2.11349 11.5766 1.64343 11.1428C1.17337 10.709 0.969369 10.2953 0.969369 9.89404C0.969369 9.49273 1.17337 9.07906 1.64343 8.64529C2.11349 8.21152 2.83875 7.78746 3.75562 7.42935C4.05241 7.31343 4.37552 7.20752 4.70999 7.10591ZM11.0447 7.68903C9.72489 7.68903 8.64468 8.76923 8.64468 10.089C8.64468 11.4088 9.72489 12.489 11.0447 12.489C12.3645 12.489 13.4447 11.4088 13.4447 10.089C13.4447 8.76923 12.3645 7.68903 11.0447 7.68903ZM6.40875 11.2243C6.61068 11.6144 6.8207 12.0058 7.04719 12.3981C7.22439 12.705 7.40536 13.0038 7.58906 13.2972C6.94444 13.2078 6.33168 13.0946 5.75625 12.9606C5.93924 12.4001 6.15816 11.8184 6.40875 11.2243ZM15.6619 11.2243C15.9135 11.8198 16.1325 12.4025 16.3162 12.9643C15.739 13.0982 15.1243 13.211 14.4778 13.3C14.6639 13.003 14.8477 12.7005 15.0272 12.3897C15.252 12.0003 15.4612 11.6115 15.6619 11.2243ZM5.47968 13.8925C6.3484 14.0983 7.28999 14.2563 8.28843 14.3593C8.95495 15.3234 9.64931 16.1896 10.3481 16.9469C10.0356 17.2515 9.72592 17.5375 9.42281 17.784C8.64247 18.4188 7.90276 18.8498 7.28625 19.0497C6.66973 19.2495 6.20962 19.2232 5.86688 19.0253C5.52413 18.8274 5.27172 18.4423 5.13656 17.8084C5.0014 17.1746 5.00514 16.3191 5.16468 15.3259C5.23706 14.8754 5.34524 14.3929 5.47968 13.8925ZM16.5937 13.8962C16.7293 14.3997 16.8378 14.8839 16.9106 15.3372C17.0703 16.3312 17.0743 17.1877 16.9387 17.8234C16.8032 18.4591 16.5497 18.8481 16.2037 19.0478C15.8578 19.2475 15.3933 19.2735 14.775 19.0731C14.1567 18.8726 13.4166 18.4409 12.6356 17.8056C12.3303 17.5573 12.0185 17.269 11.7037 16.9618C12.4072 16.2016 13.1065 15.331 13.7775 14.3612C14.7785 14.2589 15.7227 14.1018 16.5937 13.8962ZM9.54094 14.4578C10.0338 14.4846 10.5331 14.5028 11.0447 14.5028C11.5393 14.5028 12.0225 14.4857 12.4997 14.4606C12.0119 15.1188 11.5146 15.7171 11.0194 16.2559C10.5244 15.716 10.0281 15.1165 9.54094 14.4578Z" fill="var(--fill-0, #00D8FF)"/>
</g>
</svg>
