<svg preserveAspectRatio="none" width="100%" height="100%" overflow="visible" style="display: block;" viewBox="0 0 25 25" fill="none" xmlns="http://www.w3.org/2000/svg">
<g id="Redux">
<path id="Vector" d="M11.9792 2.08333C8.53281 2.08333 5.72917 5.86979 5.72917 10.5234C5.72917 13.0411 6.55313 15.299 7.85313 16.8443C7.82813 16.9552 7.8125 17.0693 7.8125 17.1875C7.8125 18.0505 8.51198 18.75 9.375 18.75C10.238 18.75 10.9375 18.0505 10.9375 17.1875C10.9375 16.3245 10.238 15.625 9.375 15.625C9.21094 15.625 9.05625 15.6573 8.90781 15.7042C7.91979 14.4432 7.29167 12.5911 7.29167 10.5234C7.29167 6.73125 9.39427 3.64583 11.9792 3.64583C13.9776 3.64583 15.6828 5.49323 16.3562 8.08229C16.9406 8.2625 17.5214 8.48958 18.0906 8.76354C17.4891 4.95208 14.9786 2.08333 11.9792 2.08333Z" fill="var(--fill-0, #7E57C2)"/>
<path id="Vector_2" d="M18.4932 10.4604C16.4375 9.21458 14.1318 8.66771 12.1484 8.91927C11.862 8.56458 11.4286 8.33333 10.9375 8.33333C10.0745 8.33333 9.375 9.03281 9.375 9.89583C9.375 10.7589 10.0745 11.4583 10.9375 11.4583C11.6 11.4583 12.163 11.0443 12.3901 10.4625C14.0141 10.2651 15.938 10.7391 17.6833 11.7974C21.0182 13.8187 22.7198 17.3021 21.476 19.5635C21.0453 20.3469 20.2854 20.9031 19.2792 21.1729C18.0885 21.4911 16.6714 21.3781 15.2547 20.8979C14.8177 21.3 14.3437 21.6781 13.8354 22.0271C15.1646 22.6089 16.5417 22.9146 17.8297 22.9146C18.4755 22.9146 19.0995 22.838 19.6833 22.6818C21.1109 22.3 22.2047 21.4818 22.8453 20.3161C24.4875 17.3313 22.5349 12.9099 18.4932 10.4604Z" fill="var(--fill-0, #7E57C2)"/>
<path id="Vector_3" d="M18.2292 15.1C18.2292 14.2396 17.5297 13.5417 16.6667 13.5417C15.8036 13.5417 15.1042 14.2396 15.1042 15.1C15.1042 15.4484 15.2229 15.7672 15.4167 16.0266C14.7505 17.4859 13.4667 18.926 11.7385 19.9734C9.72552 21.1943 7.47552 21.6411 5.72031 21.1724C4.71406 20.9026 3.95417 20.3464 3.52344 19.563C2.63698 17.9516 3.25208 15.7214 4.88281 13.8401C4.71458 13.2443 4.5901 12.6214 4.5151 11.9781C1.87448 14.4766 0.812501 17.8755 2.15469 20.3161C2.79531 21.4818 3.88906 22.3 5.31667 22.6818C5.90052 22.838 6.52396 22.9146 7.17031 22.9146C8.91302 22.9146 10.8198 22.3583 12.5484 21.3104C14.5464 20.0995 16.0292 18.4057 16.824 16.6427C17.612 16.563 18.2292 15.9068 18.2292 15.1Z" fill="var(--fill-0, #7E57C2)"/>
</g>
</svg>
