<svg preserveAspectRatio="none" width="100%" height="100%" overflow="visible" style="display: block;" viewBox="0 0 28 28" fill="none" xmlns="http://www.w3.org/2000/svg">
<g id="Shopify">
<path id="Vector" d="M21.7093 6.87167C21.6959 6.74858 21.5863 6.69375 21.5046 6.69375C21.4229 6.69375 19.6321 6.55725 19.6321 6.55725C19.6321 6.55725 18.3884 5.31358 18.2379 5.1905C18.1014 5.054 17.8413 5.09483 17.7322 5.12225C17.7188 5.12225 17.4586 5.2045 17.0351 5.341C16.6116 4.12417 15.8871 3.017 14.5886 3.017H14.4655C14.1091 2.55208 13.6448 2.33333 13.2621 2.33333C10.255 2.33333 8.806 6.09233 8.35508 8.00625C7.17967 8.3755 6.3455 8.62108 6.24983 8.6625C5.59358 8.86725 5.58017 8.88125 5.49792 9.49608C5.42967 9.961 3.72108 23.1788 3.72108 23.1788L17.0211 25.6667L24.2387 24.1086C24.2521 24.0812 21.7233 6.99475 21.7093 6.87167ZM16.2966 5.53175C15.9688 5.62742 15.5721 5.7505 15.176 5.887V5.64142C15.176 4.9035 15.0803 4.30208 14.9024 3.82317C15.5855 3.90542 16.0096 4.65733 16.2966 5.53175ZM14.0683 3.97367C14.2462 4.43858 14.3693 5.09483 14.3693 5.99667V6.13317C13.6313 6.36533 12.852 6.59808 12.0453 6.85767C12.4962 5.13567 13.3578 4.28808 14.0683 3.97367ZM13.1933 3.12608C13.3298 3.12608 13.4668 3.18092 13.5759 3.26258C12.6053 3.7135 11.5803 4.84808 11.1563 7.14467C10.514 7.34942 9.89858 7.52733 9.31117 7.71867C9.8035 5.96925 11.0338 3.12608 13.1933 3.12608Z" fill="var(--fill-0, #7CB342)"/>
<path id="Vector_2" d="M21.5046 6.66633C21.4223 6.66633 19.6321 6.52983 19.6321 6.52983C19.6321 6.52983 18.3884 5.28617 18.2379 5.16308C18.1825 5.10825 18.1142 5.08083 18.06 5.08083L17.0619 25.6667L24.2795 24.1086C24.2795 24.1086 21.7507 6.99475 21.7367 6.87167C21.6819 6.74858 21.5863 6.69375 21.5046 6.66633Z" fill="var(--fill-0, #558B2F)"/>
<path id="Vector_3" d="M14.462 10.8459L13.6016 13.4412C13.6016 13.4412 12.8217 13.0241 11.8942 13.0241C10.5093 13.0241 10.4422 13.8979 10.4422 14.1132C10.4422 15.2962 13.5345 15.7535 13.5345 18.5366C13.5345 20.7282 12.1497 22.1398 10.2807 22.1398C8.022 22.1398 6.89267 20.7416 6.89267 20.7416L7.49758 18.7518C7.49758 18.7518 8.68058 19.7738 9.67575 19.7738C10.3343 19.7738 10.6033 19.2628 10.6033 18.8866C10.6033 17.3402 8.07567 17.2731 8.07567 14.7187C8.07567 12.5808 9.60867 10.5105 12.7143 10.5105C13.8699 10.4965 14.462 10.8459 14.462 10.8459Z" fill="var(--fill-0, white)"/>
</g>
</svg>
