<svg preserveAspectRatio="none" width="100%" height="100%" overflow="visible" style="display: block;" viewBox="0 0 25 25" fill="none" xmlns="http://www.w3.org/2000/svg">
<g id="Tailwind-CSS" clip-path="url(#clip0_0_105)">
<path id="Vector" d="M12.5 5.00208C9.16667 5.00208 7.08333 6.66823 6.25 10.0005C7.5 8.33438 8.95833 7.7099 10.625 8.12604C11.576 8.36354 12.2557 9.05365 13.0083 9.81719C14.2333 11.0604 15.6516 12.5 18.75 12.5C22.0833 12.5 24.1667 10.8339 25 7.50104C23.75 9.16719 22.2917 9.79219 20.625 9.37604C19.6745 9.13854 18.9948 8.44844 18.2422 7.6849C17.0167 6.44115 15.5979 5.00208 12.5 5.00208ZM6.25 12.5C2.91667 12.5 0.833335 14.1661 1.90735e-06 17.499C1.25 15.8328 2.70833 15.2078 4.375 15.6245C5.32552 15.8625 6.00521 16.5521 6.75781 17.3151C7.98334 18.5589 9.40208 19.9984 12.5 19.9984C15.8333 19.9984 17.9167 18.3323 18.75 14.9995C17.5 16.6656 16.0417 17.2906 14.375 16.874C13.424 16.6365 12.7443 15.9464 11.9917 15.1833C10.7667 13.9396 9.34844 12.5 6.25 12.5Z" fill="var(--fill-0, #00ACC1)"/>
</g>
<defs>
<clipPath id="clip0_0_105">
<rect width="25" height="25" fill="white"/>
</clipPath>
</defs>
</svg>
