<svg preserveAspectRatio="none" width="100%" height="100%" overflow="visible" style="display: block;" viewBox="0 0 18.75 18.75" fill="none" xmlns="http://www.w3.org/2000/svg">
<g id="Typescript">
<path id="Vector" d="M16.75 0H2C0.895431 0 0 0.895431 0 2V16.75C0 17.8546 0.895431 18.75 2 18.75H16.75C17.8546 18.75 18.75 17.8546 18.75 16.75V2C18.75 0.895431 17.8546 0 16.75 0Z" fill="var(--fill-0, #1976D2)"/>
<path id="Vector_2" d="M11.1927 8.33333H4.2849V10.0333H6.7625V17.7083H8.72552V10.0333H11.1927V8.33333Z" fill="var(--fill-0, white)"/>
<path id="Vector_3" d="M17.2885 10.4604C17.2885 10.4604 16.3578 9.83958 15.3057 9.83958C14.2536 9.83958 13.875 10.3396 13.875 10.874C13.875 12.2531 17.7193 12.1151 17.7193 14.8906C17.7193 19.1661 11.8578 17.2698 11.8578 17.2698V15.2188C11.8578 15.2188 12.9786 16.0635 14.3229 16.0635C15.6672 16.0635 15.6161 15.1844 15.6161 15.0635C15.6161 13.788 11.8062 13.788 11.8062 10.9604C11.8062 7.11615 17.3573 8.63281 17.3573 8.63281L17.2885 10.4604Z" fill="var(--fill-0, white)"/>
</g>
</svg>
