<svg width="100%" height="100%" viewBox="33 13 47 27" fill="none" xmlns="http://www.w3.org/2000/svg">
<path d="M66.5796 17.8275C66.6732 17.6488 66.9295 17.6487 67.023 17.8275L76.108 35.2191C76.1949 35.3855 76.0739 35.5851 75.8863 35.5853H57.7164C57.5286 35.5853 57.4077 35.3856 57.4947 35.2191L66.5796 17.8275Z" stroke="currentColor" stroke-width="0.5"/>
<mask id="ga-mask" fill="white">
<path d="M56.0625 26.5C56.3386 26.5 56.5639 26.724 56.5495 26.9998C56.4541 28.8368 55.8345 30.6121 54.759 32.113C53.5862 33.7496 51.9302 34.9778 50.0236 35.625C48.117 36.2722 46.0556 36.3059 44.1288 35.7214C42.2021 35.137 40.5068 33.9636 39.2811 32.3662C38.0554 30.7689 37.3608 28.8277 37.2949 26.8153C37.2291 24.8029 37.7952 22.8204 38.9138 21.1463C40.0324 19.4722 41.6473 18.1905 43.5317 17.4813C45.2598 16.8309 47.135 16.6918 48.9341 17.0752C49.2042 17.1327 49.3623 17.4082 49.2908 17.6749L47.0948 25.8706C47.0097 26.1882 47.249 26.5 47.5778 26.5H56.0625Z"/>
</mask>
<path d="M56.0625 26.5C56.3386 26.5 56.5639 26.724 56.5495 26.9998C56.4541 28.8368 55.8345 30.6121 54.759 32.113C53.5862 33.7496 51.9302 34.9778 50.0236 35.625C48.117 36.2722 46.0556 36.3059 44.1288 35.7214C42.2021 35.137 40.5068 33.9636 39.2811 32.3662C38.0554 30.7689 37.3608 28.8277 37.2949 26.8153C37.2291 24.8029 37.7952 22.8204 38.9138 21.1463C40.0324 19.4722 41.6473 18.1905 43.5317 17.4813C45.2598 16.8309 47.135 16.6918 48.9341 17.0752C49.2042 17.1327 49.3623 17.4082 49.2908 17.6749L47.0948 25.8706C47.0097 26.1882 47.249 26.5 47.5778 26.5H56.0625Z" stroke="currentColor" mask="url(#ga-mask)"/>
</svg>
